<?xml version="1.0" encoding="UTF-8"?>
<svg id="Layer_2" data-name="Layer 2" xmlns="http://www.w3.org/2000/svg" viewBox="0 0 734.75 167.36">
  <defs>
    <style>
      .cls-1 {
        fill: #fff;
      }
    </style>
  </defs>
  <g id="Layer_1-2" data-name="Layer 1">
    <g>
      <g>
        <path class="cls-1" d="M310.95,76.39c-5.55-.87-10.27-3.29-13.9-7.6-4.62-5.5-5.32-11.72-2.39-18.42,1.61-3.68,4.22-6.53,7.49-8.74,4.09-2.77,8.58-4.17,13.47-4.21,2.33-.02,4.58.4,6.86.78,2.79.46,5.19,1.72,7.52,3.17,2.8,1.75,4.69,4.28,5.78,7.46.42,1.22.87,2.42,1,3.72.17,1.68.15,3.37-.13,5.05-.18,1.06-.27,2.13-.52,3.17-.86,3.45-2.68,6.34-5.19,8.79-4.37,4.25-9.6,6.48-15.55,6.88-1.48.1-2.97-.02-4.45-.04ZM298.45,56.44c-.03.22-.08.45-.09.67-.31,3.78.19,7.3,2.88,10.14.08.08.14.17.19.27.38.79,1.09,1.23,1.77,1.69.5.34,1.04.61,1.55.94,2.29,1.49,4.83,2,7.53,2,3.72-.01,7.12-1.43,10.54-2.74.2-.08.39-.22.58-.34.95-.59,1.88-1.2,2.84-1.78,1.57-.96,2.74-2.31,3.66-3.89,1-1.72,1.74-3.55,2.14-5.5.38-1.84.54-3.7.05-5.53-.62-2.34-1.53-4.54-3.13-6.38-2.11-2.41-4.65-3.97-7.85-4.41-2.25-.31-4.49-.2-6.74.05-1.71.19-3.38.58-4.97,1.27-5.94,2.58-9.73,6.99-10.94,13.55Z"/>
        <path class="cls-1" d="M520.82,41.52c-.14,1.64-.27,3.13-.4,4.56-.36.36-.65.12-.93.06-2.19-.48-4.37-1.03-6.58-1.46-2.77-.55-5.57-.72-8.44-.6-2.84.12-7.68.71-10.33,1.73-2.74,1.06-5.1,2.69-6.81,5.18-.24.35-.53.66-.77,1.01-.86,1.22-1.5,2.54-1.73,4.02-.38,2.43-.72,4.85-.16,7.25.15.66.31,1.29.72,1.83.03.04.07.08.09.12.65,2.05,2.34,3.12,3.97,4.22.82.55,1.81.88,2.76,1.23.95.35,1.93.64,2.92.88.69.17,1.41.24,2.12.3.66.06,1.35-.01,2.01.07,2.28.27,6.67-.01,8.91-.51,2.54-.57,5.07-1.23,7.58-1.91,1.31-.36,2.58-.86,3.87-1.29.19-.06.39-.11.69-.19.09,1.85-.11,3.63,0,5.45-.39.14-.67.27-.96.35-3.22.93-6.48,1.6-9.76,2.15-3.49.59-9.14.6-12.64.5-1.67-.05-3.2-.56-4.76-1.07-1.81-.59-3.47-1.42-5.06-2.41-2.16-1.34-3.79-3.19-4.92-5.45-2.57-5.16-2.73-10.51-.42-16.04.76-1.83,1.71-3.51,3.17-4.87,1.7-1.59,3.47-3.15,5.59-4.09,2.29-1.02,4.67-1.85,7.15-2.29,3.04-.53,8.19-.74,11.24-.47,2.77.24,5.5.65,8.22,1.14,1.15.21,2.31.39,3.67.62Z"/>
        <path class="cls-1" d="M628.46,76.21c-.18-6.97-.36-13.7-.52-20.42-.13-5.2-.24-10.4-.36-15.76.68.18,1.23.31,1.77.48,3.36,1.1,6.74,2.16,10.07,3.32,3.23,1.13,6.41,2.37,9.61,3.56.27.1.54.21.79.35,2.46,1.38,4.97,2.68,7.34,4.18,1.83,1.16,3.56,2.51,5.2,3.9,1.52,1.29,2.82,2.79,3.31,4.79.82,3.35-.18,6.21-2.68,8.66-1.83,1.79-4.03,2.89-6.58,3.46-5.23,1.17-10.49,2.04-15.83,2.42-2.92.21-5.84.55-8.76.81-1.04.09-2.09.14-3.37.23ZM633.42,72.48c.48,0,.83.03,1.17,0,1.8-.21,3.61-.44,5.41-.67,1.34-.17,2.68-.35,4.01-.53,3.08-.42,6.15-.84,9.13-1.82,1.63-.54,3.14-1.24,4.58-2.16,1.86-1.19,2.86-2.8,3.13-4.88.17-1.3-.09-2.45-1.06-3.39-1.14-1.11-2.33-2.17-3.76-2.95-1.66-.91-3.35-1.79-4.98-2.74-2.99-1.74-6.11-3.21-9.34-4.47-1.24-.48-2.49-.95-3.68-1.52-1.47-.7-3.01-1.17-4.62-1.5-.26-.05-.54,0-.83,0,.23,4.46.53,8.82.67,13.19.14,4.42.12,8.85.16,13.45Z"/>
        <path class="cls-1" d="M261.37,40.5c.01.84.05,1.54.03,2.25-.12,3.44-.26,6.87-.37,10.31-.04,1.28-.03,2.56,0,3.84,0,.5.11,1,.18,1.56,1.8.41,3.66.18,5.45.32,1.87.15,3.75.24,5.64.31,1.82.07,3.65.07,5.47.13,1.81.06,3.62.16,5.54.24.09-.37.2-.66.21-.95.1-3.49.17-6.97.28-10.46.03-1.08.18-2.16.19-3.23.01-1.07-.08-2.14-.13-3.17.44-.51,1.09-.41,1.65-.48.65-.08,1.31-.09,1.96-.12.58-.03,1.17-.11,1.79.14.01.23.05.48.04.73-.08,4.31-.24,8.62-.24,12.92,0,4.51.18,9.01.22,13.52.02,2.25-.09,4.51-.15,6.77,0,.14-.1.29-.18.5-1.68.24-3.34.17-5.09.15-.33-2.13-.14-4.23-.19-6.31-.05-2.09-.04-4.19-.06-6.24-.56-.35-1.17-.28-1.75-.26-1.9.06-3.77-.07-5.64-.26-2.05-.21-4.14-.3-6.22-.35-2.85-.08-5.71-.08-8.68-.12-.16,2.28.04,4.46.05,6.65.01,2.19,0,4.39.01,6.57-1.43.29-3.82.38-5.74.21-.25-.5-.19-1.07-.18-1.62.09-2.92.17-5.85.27-8.77.06-1.8.19-3.59.24-5.39.12-4.51.12-9.02-.28-13.51-.15-1.68-.13-3.37-.17-5.06,0-.14.09-.29.16-.51,1.8-.28,3.61-.17,5.71-.31Z"/>
        <path class="cls-1" d="M367.25,72.03c0,1.36,0,2.61,0,3.83-.41.07-.81.05-1.21.06-4.74.11-9.27.05-14.01.12-2.49.04-5.32-.1-7.81-.09-.89,0-1.77.07-2.66.08-.4,0-.8-.05-1.3-.09-.06-.54-.01-.75-.03-1.23-.14-4.33-.19-8.67-.43-12.99-.35-6.34-.19-12.68-.02-19.01.02-.75.04-1.49.06-2.32h5.45c.28,2.14.11,4.25.16,6.35.05,2.17.03,4.34.05,6.5.02,2.11.05,4.23.06,6.34.01,2.17,0,4.34,0,6.5,0,2.11,0,4.22,0,6.4.4.08.73.22,1.06.21,3.79-.14,7.59.03,11.38-.28,3-.24,6.03-.27,9.23-.4Z"/>
        <path class="cls-1" d="M474.71,75.88c-1.4.33-2.78.56-4.31.52-.06-.33-.16-.63-.16-.93-.05-3.09-.06-6.18-.12-9.27-.08-4.28-.2-8.56-.3-12.84-.01-.65-.01-1.3,0-1.95.03-3.09.06-6.18.1-9.27,0-.21.03-.42.06-.72,1.39-.36,2.78-.52,4.28-.66.09,1.41.18,2.74.2,4.08.04,2.71.11,5.42.17,8.12,0,.33.04.65.03.97-.08,5.48-.19,10.95-.22,16.43-.01,1.78.18,3.56.28,5.51Z"/>
        <path class="cls-1" d="M376.42,75.32c-1.53.41-2.88.26-4.35.11-.07-.44-.19-.87-.2-1.3-.06-3.61-.22-7.23-.12-10.84.1-3.45-.06-6.89-.1-10.33-.06-4.23-.09-8.47-.12-12.71,0-.16.07-.32.13-.55.8-.28,1.62-.09,2.43-.05.81.04,1.65-.25,2.5.11.34.76.23,1.57.14,2.33-.51,4.73-.34,9.48-.65,14.21-.31,4.69-.08,9.37.17,14.05.07,1.3.14,2.59.19,3.89.01.33-.02.66-.03,1.08Z"/>
        <path class="cls-1" d="M465.27,41.35c-.51-.46-1.02-.38-1.52-.38-3.65-.06-7.31-.21-10.95-.16-4.48.07-8.95.26-13.4.6-2.78.21-5.57.37-8.35.57-.93.07-1.9-.14-2.86.22-.03,1.27-.08,2.5.38,3.84,1.88.02,3.71-.02,5.54-.11,1.84-.09,3.69-.17,5.54-.19,1.83-.02,3.64-.24,5.44.01.1.24.19.36.19.47.01,2.26.04,4.52.02,6.78-.03,2.95-.18,5.88-.15,8.83.04,4.65.18,9.31.29,13.96,0,.14.03.29.06.44h4.76c-.41-3.53-.65-7.01-.76-10.49-.08-2.39-.13-4.78-.19-7.17-.05-1.89-.12-3.78-.17-5.66-.04-1.7-.07-3.4-.1-5.09-.01-.68,0-1.36.02-2.26,2,.07,3.8.17,5.59.2,1.85.04,3.7.02,5.56.03,1.78.01,3.57.17,5.41-.11-.12-1.53-.23-2.96-.33-4.35Z"/>
        <path class="cls-1" d="M574.57,40.51c-2.99-.08-4.09.29-7.08.27-3.84-.02-11.85,1.05-15.82,8.7-1.73,3.33-2.78,6.43-4.2,9.9-1.07,2.64-2.07,5.3-3.36,7.86-.62,1.22-1.05,2.53-1.55,3.81-.38.98-.73,1.97-1.11,2.96-.2.51-.4,1.03-.6,1.54h5.42c.52-1.32,1.03-2.64,1.61-3.95.76-1.73,1.16-3.59,2.26-5.3,1.41,0,2.82,0,4.22,0,1.52,0,3.05.06,4.57-.04,2.37-.16,4.74-.11,7.11-.03,1.24.04,2.48,0,3.73.02.32,0,.63.06.99.09-.06,1.2-.1,2.29-.17,3.38-.07,1.05-.21,2.09-.27,3.13-.06,1.07-.06,1.74-.18,3.27,1.22-.02,3.67.16,4.82-.08.11-.02.2-1.83.18-2.04-.2-2.37-.05-4.07.18-6.42.26-2.66.14-3.47.25-5.05.06-.91.04-2.94.1-3.41.16-1.19.3-3.29.34-4.5.08-2.53.08-3.7.08-5.68,0-2.58,0-5.73.21-8.38-.45-.1-1.37-.06-1.74-.07ZM571.18,53.43c-.27,2.81.26,5.62-.05,8.43-.04.36-.09.71-.15,1.17-1.4.05-2.74.12-4.08.13-1.13.01-2.26,0-3.38-.08-1.92-.12-3.83,0-5.75.13-1.74.12-3.49.16-5.24.21-.38.01-.77-.06-1.27-.11.15-.48.25-.88.41-1.26,1.3-3.11,1.88-5.16,3.15-8.28.86-2.1,2.44-5.25,4.15-6.73,5.3-4.58,7.55-3.42,12.46-3.29.04.36.02,2.57,0,2.86-.21,2.77,0,4.04-.26,6.8Z"/>
        <path class="cls-1" d="M636.64,90.88c-2.78-.08-3.8.32-6.58.3-3.57-.02-11.02,1.14-14.71,9.48-1.6,3.62-2.59,7-3.9,10.78-1,2.88-1.92,5.78-3.13,8.57-.58,1.33-.98,2.76-1.44,4.15-.36,1.07-.68,2.15-1.03,3.22-.18.56-.37,1.12-.56,1.68h5.04c.48-1.43.96-2.88,1.5-4.3.71-1.88,1.08-3.92,2.11-5.77,1.31,0,2.62,0,3.93,0,1.42,0,2.84.07,4.25-.04,2.21-.17,4.41-.12,6.61-.04,1.15.04,2.31,0,3.47.02.29,0,.59.06.92.1-.05,1.31-.09,2.5-.16,3.68-.07,1.14-.19,2.27-.25,3.41-.06,1.17-.06,1.89-.17,3.56,1.14-.02,3.41.17,4.49-.08.11-.02.19-1.99.17-2.22-.19-2.58-.05-4.44.17-7,.24-2.9.13-3.78.23-5.5.06-1,.04-3.21.09-3.72.15-1.3.28-3.59.31-4.9.07-2.76.07-4.03.07-6.19,0-2.81,0-6.24.2-9.13-.42-.11-1.28-.07-1.62-.08ZM633.48,104.95c-.25,3.07.24,6.13-.04,9.19-.04.39-.09.77-.14,1.27-1.31.05-2.55.13-3.79.14-1.05.01-2.1,0-3.15-.09-1.79-.13-3.56,0-5.34.15-1.62.13-3.25.17-4.87.23-.35.01-.71-.07-1.18-.12.14-.52.23-.96.38-1.37,1.2-3.39,1.74-5.62,2.93-9.02.8-2.29,2.27-5.72,3.86-7.33,4.93-4.99,7.02-3.73,11.59-3.59.04.39.02,2.8,0,3.12-.2,3.02,0,4.4-.24,7.41Z"/>
        <path class="cls-1" d="M492.38,91.09c-2.78-.08-5.3.39-7.2.6-4.45.49-10.24,1.8-13.93,10.13-1.6,3.62-2.75,6.05-4.06,9.83-1,2.88-1.92,5.78-3.13,8.57-.58,1.33-.98,2.76-1.44,4.15-.36,1.07-.68,2.15-1.03,3.22-.18.56-.37,1.12-.56,1.68h5.04c.48-1.43.96-2.88,1.5-4.3.71-1.88,1.08-3.92,2.11-5.77,1.31,0,2.62,0,3.93,0,1.42,0,2.84.07,4.25-.04,2.21-.17,4.41-.12,6.61-.04,1.15.04,2.31,0,3.47.02.29,0,.59.06.92.1-.05,1.31-.09,2.5-.16,3.68-.07,1.14-.19,2.27-.25,3.41-.06,1.17-.06,1.89-.17,3.56,1.14-.02,3.41.17,4.49-.08.11-.02.19-1.99.17-2.22-.19-2.58-.05-4.44.17-7,.24-2.9.13-3.78.23-5.5.06-1,.04-3.21.09-3.72.15-1.3.28-3.59.31-4.9.07-2.76.07-4.03.07-6.19,0-2.81,0-6.24.2-9.13-.42-.11-1.28-.07-1.62-.08ZM489.23,105.16c-.25,3.07.24,6.13-.04,9.19-.04.39-.09.77-.14,1.27-1.31.05-2.55.13-3.79.14-1.05.01-2.1,0-3.15-.09-1.79-.13-3.56,0-5.34.15-1.62.13-3.25.17-4.87.23-.35.01-.71-.07-1.18-.12.14-.52.23-.96.38-1.37,1.2-3.39,1.74-5.62,2.93-9.02.8-2.29,2.18-4.86,3.77-6.47,4.93-4.99,8.66-3.8,11.68-4.45.04.39.02,2.8,0,3.12-.2,3.02,0,4.4-.24,7.41Z"/>
        <path class="cls-1" d="M611.8,73.17c.93,1.03,1.87,2.07,2.8,3.1h7.22c.09-2.18.19-4.36.19-6.53,0-2.9-.15-7.93-.23-10.82-.05-1.84-.1-3.68-.11-5.52-.01-1.34.02-2.68.06-4.02.03-.89.13-1.79.13-2.68,0-1.4-.05-2.79-.1-4.18-.01-.32-.1-.63-.16-.94-1.2-.21-2.3-.48-3.47-.25-.05.18-.11.29-.11.39-.07,5.87-.16,13.87-.2,19.74-.01,2.12.12,4.24.16,6.35.02.77.03,1.54-.23,2.67-9.11-10.02-18.01-19.82-26.83-29.53-3.23-.25-5.22-.19-6.23.18-.03.15-.09.32-.09.48.06,2.56.04,5.13-.08,7.71-.14,3.19.03,6.36.05,9.55,0,.95.02,1.9-.03,2.85-.18,3.36.1,3.89-.09,7.25-.1,1.74-.06,3.95-.12,5.69-.01.43.1.85.16,1.32.8-.02,1.47,0,2.15-.05.66-.04,1.33.09,2.05-.12.1-1.14.24-2.19.29-3.25.24-4.93-.15-7.51.04-12.43.14-3.69.2-7.39.31-11.08.01-.48-.14-1.01.46-1.47.32-.01.68-.03,1.05-.05.61-.03,1.03.19,1.39.61,2.25,2.59,4.47,5.2,6.49,7.96,2.05,2.79,4.1,5.59,6.2,8.35,2.14,2.8,4.34,5.57,6.51,8.35.1.13.22.26.33.38Z"/>
        <path class="cls-1" d="M572.03,129.14c-1.5.09-2.82.04-4.24-.13-.24-1.67,0-2.74-.03-4.39-.03-1.66,0-3.33.01-4.95-.2-.08-.32-.17-.43-.16-6.76.52-13.52,1.03-20.3,1.2-.25,0-.49.09-.8.15-.37,1.56.03,3.09.06,4.62.04,1.48.13,2.1.19,3.66-1.79.36-3.49.19-5.08.27-.14-.14-.2-.18-.22-.23-.05-.11-.11-.23-.12-.35-.03-.68-.05-.51-.06-1.19-.2-12.36-.28-24.85-.53-37.26,1.8-.3,3.55-.09,5.3-.17.08.4.06,1.03.09,1.38.32,3.45.19,6.53.2,9.99.02,4.52.11,9.03.19,13.55,0,.61.07,1.22.1,1.9,1.02.15,1.97.05,2.91-.05,4.84-.52,9.69-.66,14.55-.88,1.33-.06,2.66-.24,4.1-.37.06-1.06.12-2.03.16-3.01.15-3.65.29-7.29.43-10.94.12-3.22-.13-5.84.05-9.5-.02-.24,0-.95.02-1.32,1.92-.04,3.52.13,5.06-.01.07.34-.09.72,0,1.04-.22,2.71-.2,4.91-.48,7.62-.41,4-.3,9.05-.73,13.05-.1.98-.17,1.97-.2,2.96-.05,1.61-.06,3.21-.08,4.82-.03,2.23-.05,4.45-.08,6.68-.01.8-.02,1.02-.04,2.03Z"/>
        <path class="cls-1" d="M733.48,129.2c-1.5.09-3.17.13-4.59-.05-.24-1.67,0-2.74-.03-4.39-.03-1.66.02-4.26.03-5.88-.2-.08-.42.01-.53.02-6.76.52-13.63.23-20.25-.13-.25,0-.57-.06-.88,0-.37,1.56.13,5.32.17,6.85.04,1.48.13,2.1.19,3.66-1.98-.05-2.97-.09-4.57,0-.14-.14-.71.1-.74.04-.05-.11-.11-.23-.12-.35-.03-.68-.05-.51-.06-1.19-.24-14.56-.33-27.04-.53-37.26,1.8-.3,3.55-.09,5.3-.17.08.4.06,1.03.09,1.38.32,3.45.19,6.53.2,9.99.02,4.52-.06,6.48.01,11,0,.61.02,1.61.06,2.29,1.02.15,3.14.24,4.07.14,4.9-.05,8.95.49,13.8.27,1.33-.06,2.47-.05,3.91-.18.06-1.06.11-1.4.15-2.37.15-3.65.29-7.29.43-10.94.12-3.22-.13-5.84.05-9.5-.02-.24,0-.95.02-1.32,1.92-.04,3.52.13,5.06-.01.07.34-.09.72,0,1.04-.22,2.71-.2,4.91-.48,7.62-.41,4-.25,9.15-.68,13.14-.1.98-.03,1.87-.06,2.86-.05,1.61.02,3.13,0,4.74-.03,2.23.03,4.46,0,6.69-.01.8-.02,1.02-.04,2.03Z"/>
        <path class="cls-1" d="M601.89,124.62c-3.32.11-6.63.22-9.95.34-2.43.09-4.85.21-7.28.28-.4.01-.79-.14-1.19-.22-.05-.41-.12-.72-.11-1.03.08-2.41.16-4.83.26-7.24.03-.63-.06-1.3.5-1.94,1.79.01,3.6.02,5.4.04,1.81.02,3.61.13,5.43.05,1.46-.06,2.91.12,4.39,0-.03-.64-.02-1.28.04-1.92-.06-.86-.06-1.73.05-2.59-.44-.02-.88,0-1.31,0-4.29,0-8.58.03-12.87.03-.34,0-.68-.08-1.07-.13.04-4.84.2-9.58.43-14.33.28-.09.47-.2.64-.2,3.15-.04,6.3-.13,9.43-.1,2.59.03,5.17.09,7.76.15.07-1.26.35-2.81.34-4.86-1.3,0-2.6.05-3.9.03-2.11-.03-4.2-.18-6.32-.16-3.14.04-6.3.17-9.45.28-1.08.04-2.16.13-3.39.21-.07.67-.14,1.06-.15,1.45-.04,1.5,0,3-.12,4.5-.3,3.68-.23,7.31-.1,10.93.2,5.63,0,11.3-.3,16.99-.08,1.42-.26,2.36-.09,3.75.24.07.4.16.57.16,6.96-.08,13.98-.34,20.92-.26.47,0,.95-.08,1.49-.12.03-.09.04-.16.07-.24-.05-.54-.13-1.08-.15-1.63-.03-.74,0-1.47.03-2.21Z"/>
        <path class="cls-1" d="M342.17,92.78c.63,0,2.59-.19,3.58-.05,2.71-.05,4.78.08,7.31.03,4.26-.07,8.43.43,12.57,1.27.95.19,1.91.38,2.86.59,1.53.34,2.94.92,4.26,1.7.89.53,1.64,1.19,2.1,2.03,1.03,1.86,1.55,3.78,1.07,5.88-.71,3.1-2.89,4.92-6.15,5.87-2.47.73-4.97,1.33-7.57,1.58-1.29.12-2.59.16-3.89.26-.63.05-1.26.15-1.9.24,0,.27-.04.45.03.6,1.44,3.25,2.99,6.46,5.56,9.15,2.32,2.43,5.25,3.97,8.92,4.18,1.57.09,3.12.03,4.67-.18.31-.04.63-.08,1.02-.13.39.59.14,1.16.1,1.7-.05.52-.1,1.04-.21,1.55-.11.56-.08,1.17-.62,1.72-3.51.33-7.09.27-10.44-1.07-2.39-.96-4.43-2.42-6.14-4.24-2.34-2.47-4.1-5.24-5.59-8.16-.73-1.42-1.31-2.9-1.97-4.35-.07-.16-.21-.29-.3-.42-1.48-.26-3.88-.25-5.34.04-.31,1.92.23,3.87.22,5.82,0,1.97.11,3.94.17,5.9.06,1.96.12,3.92.18,5.97-1.63.42-3.14.14-4.68-.01-.1-.26-.24-.48-.24-.69.04-12.04-.05-24.09.4-36.12.01-.28-.02-.42.05-.68ZM345.97,107.81c.19.02.44.06.69.06,1.49-.03,2.99-.05,4.48-.11,3.05-.12,6.12.1,9.15-.35.45-.07.91-.04,1.36-.06,1.75-.08,3.51-.13,5.26-.25.71-.05,1.42-.18,2.1-.35,1.48-.35,2.5-1.19,3.01-2.48.19-.49.39-.99.51-1.49.18-.78.02-1.49-.65-2.08-.79-.71-1.68-1.35-2.76-1.59-1.57-.35-2.87-1.13-4.52-1.18-.45-.01-1.22-.11-1.64-.23-2.13-.64-4.2-.62-6.38-.75-1.93-.11-4,.09-5.94,0-1.03-.05-2.07-.16-3.1-.23-.5-.03-1.25-.17-1.74-.18-.11.25,0,.54,0,.7-.03,3.41-.06,6.83-.07,10.24,0,.09.13.19.25.35Z"/>
        <path class="cls-1" d="M430.26,92.92c1.59,0,2.92,0,4.35-.01.06.37.17.72.18,1.06.07,4.54.13,9.08.2,13.62.06,3.99.04,7.98.65,11.99.16,1.04.48,2.02.94,3,.68,1.44,1.73,2.46,3.27,3.1,1.95.81,3.93,1.49,5.99,1.13,2-.35,3.78-1.16,5.27-2.47,1.91-1.68,3.02-3.75,3.77-6.15,1.27-4.06,1.23-8.28,1.23-12.51,0-3.93-.15-7.87-.22-11.8,0-.35.02-.7.04-1.1.72-.29,1.43-.11,2.12-.07.63.03,1.27.14,1.92.22.44,1.08.42,2.12.41,3.12-.04,4.71-.14,9.42-.22,14.13-.02.91-.04,1.81-.09,2.71-.19,3.75-.96,7.36-2.2,10.86-.14.39-.32.78-.57,1.1-1.7,2.26-3.93,3.85-6.87,4.5-3.93.86-7.9.78-11.95-.15-1.55-.36-2.91-1.1-4.31-1.78-.68-.33-1.06-.96-1.33-1.59-1.03-2.41-2.06-4.79-2.32-7.41-.37-3.77-.53-7.51-.48-11.26.06-3.62.05-7.25.09-10.88.01-1.08.09-2.15.14-3.37Z"/>
        <path class="cls-1" d="M295.91,92.11c2.31-.3,4.35-.18,6.37.03,2.24.23,4.47.57,6.71.87.79.11,1.59.21,2.36.41,3.24.85,6.36,1.97,9.36,3.36,2.34,1.08,4.21,2.56,5.36,4.67.65,1.19.9,2.39.79,3.65-.29,3.19-1.93,5.62-5.16,7.21-2.02.99-4.23,1.49-6.48,1.91-4.65.87-9.4,1.25-14.19,1.36-.35,0-.69.06-1.12.1-.53,4.83-.6,9.6-.06,14.47-1.74.12-3.3.05-4.95-.25-.05-.4-.15-.76-.14-1.12.08-3.8.15-7.6.29-11.39.13-3.54.39-7.08.52-10.63.07-1.93,0-3.86,0-5.8,0-2.92.27-5.83.35-8.87ZM300.22,95.96c-.4,3.43-.48,13.14-.12,14.54.97.11,1.98.29,2.98.32,4.66.13,9.25-.21,13.67-1.4,1.51-.4,2.97-.89,4.23-1.72,1.98-1.3,2.15-3.01,1.37-4.62-.83-1.69-2.08-3.05-4.12-3.79-.81-.29-1.62-.6-2.45-.86-3.69-1.14-7.55-1.44-11.35-2.05-1.35-.21-2.72-.27-4.22-.42Z"/>
        <path class="cls-1" d="M525.28,124.79c-.56,1.69-1.33,3.14-2.09,4.65-7.66.02-15.29.03-23.04.05-.02-1.84-.03-3.62-.06-5.39-.03-1.86-.08-3.73-.13-5.59-.04-1.8-.12-3.6-.14-5.41-.02-1.8.03-3.61.02-5.41-.01-1.8-.09-3.61-.08-5.41,0-1.86.08-3.73.12-5.6.04-1.79-.33-3.58-.05-5.43,1.53-.35,3.03-.37,4.64-.61.09.52.23.91.23,1.31,0,2.52.01,5.05-.06,7.58-.1,3.61-.32,7.22-.41,10.83-.1,4.15-.1,8.3-.16,12.45-.01.84-.08,1.67-.12,2.6,1.83.24,3.58-.13,5.32-.18,1.77-.06,3.54.07,5.3.03,1.77-.04,3.54-.2,5.31-.28,1.76-.08,3.51-.11,5.4-.17Z"/>
        <path class="cls-1" d="M670.1,124.79c-.56,1.69-1.33,3.14-2.09,4.65-7.66.02-15.29.03-23.04.05-.02-1.84-.03-3.62-.06-5.39-.03-1.86-.08-3.73-.13-5.59-.04-1.8-.12-3.6-.14-5.41-.02-1.8.03-3.61.02-5.41-.01-1.8-.09-3.61-.08-5.41,0-1.86.08-3.73.12-5.6.04-1.79-.33-3.58-.05-5.43,1.53-.35,3.03-.37,4.64-.61.09.52.23.91.23,1.31,0,2.52.01,5.05-.06,7.58-.1,3.61-.32,7.22-.41,10.83-.1,4.15-.1,8.3-.16,12.45-.01.84-.08,1.67-.12,2.6,1.83.24,3.58-.13,5.32-.18,1.77-.06,3.54.07,5.3.03,1.77-.04,3.54-.2,5.31-.28,1.76-.08,3.51-.11,5.4-.17Z"/>
        <path class="cls-1" d="M330.81,92.96c1.65-.07,3.11-.02,4.51.08.14.38.14.65.13.81-.03,2.34-.06,4.68-.12,7.02-.09,3.12-.17,6.24-.31,9.36-.23,5.09-.43,10.19-.08,15.28.09,1.37.12,2.75.15,4.13,0,.4-.07.8-.11,1.17-1.45.21-3.12.15-4.47-.16-.07-.36-.2-.76-.2-1.17-.04-4.2-.12-8.4-.09-12.6.02-3.48.17-6.96.27-10.44.12-3.9.25-7.79.37-11.69.02-.53-.03-1.06-.06-1.8Z"/>
        <path class="cls-1" d="M387.04,130.67c-1.53.16-2.85.29-4.04.41-.6-.3-.67-.71-.67-1.13,0-.7,0-1.41.02-2.11.15-8.22.37-16.44.05-24.66-.11-2.81-.16-5.63-.23-8.45,0-.11.07-.21.14-.4,1.4-.26,2.84-.18,4.4-.19.04.53.12.98.11,1.44-.14,6.46-.33,12.92-.42,19.37-.06,4.29.08,8.57.48,12.84.08.87.1,1.75.16,2.87Z"/>
        <path class="cls-1" d="M695.83,90.2c-1.28-.05-2.56-.1-3.85-.11-3.31-.02-6.61-.01-9.92-.01-2.02,0-4.05,0-6.07.02-3.13.02-6.25,0-9.38.08-2.7.07-5.15.17-7.85.31-.17,0-.6-.03-.84.05.06,1-.17,2.67.02,3.84,3.54-.12,6.97-.25,10.4-.35,3.43-.09,6.85-.15,10.47-.22-.03,3.28-.08,6.28-.09,9.29-.01,2.94,0,5.87,0,8.81,0,3.01,0,6.01.03,9.02.03,2.78-.21,5.6-.07,8.52h3.97c.07-.34.16-.61.16-.86-.04-3.14-.07-6.29-.16-9.42-.21-7.9.1-15.81.83-23.74.05-.53.18-1.05.28-1.64.61-.01,1.1-.04,1.58-.02,3.05.12,6.11.26,9.16.38.47.02,1.41.1,1.95.07.24-.93,0-1.88.2-2.7.08-.33.06-.82.09-1.24-.34-.07-.62-.04-.91-.06Z"/>
        <path class="cls-1" d="M424.81,92.87c-.21-.03-.45-.11-.69-.11-5.25.07-10.5.15-15.74.23-.64,0-1.28.04-1.92.05-3.07.06-6.14.14-9.21.16-1.56.01-3.12,0-4.68,0v4.3c.32-.02.65-.05.98-.06,2.04-.07,4.09-.02,6.13-.01,1.96,0,3.94-.17,5.83.03.11.23.21.34.2.44-.1,2.41-.21,4.82-.31,7.23-.06,1.48-.19,2.97-.17,4.45.06,6.25-.15,12.5-.51,18.74-.02.29,0,.59,0,.86,1.72.26,3.17.2,4.71-.19.01-.4.05-.82.03-1.24-.11-4.02-.3-8.03-.32-12.05-.03-4.76.07-9.53.16-14.3.02-1.28.05-2.58.31-3.94,1.21-.19,2.35-.22,3.49-.22,2.94,0,5.89,0,8.83-.02.88,0,1.76-.12,2.59-.18.56-1.74.6-2.33.31-4.17Z"/>
        <path class="cls-1" d="M287.07,99.38s-4.77-1.75-8.9-2.62c-6.88-1.46-13.58-3.61-16.53.38-1.75,2.37-1.22,11.7-1.22,11.7l23.34.02,6.03.12s1.09,6.9-.08,12.37c-1.5,7.03-3.78,8.6-12.32,8.26-8.04-.32-21.43-4.71-21.43-4.71l.07-5.49s14.17,4.75,22.99,6.14c9.59,1.51,7.09-11.86,7.09-11.86l-30.59-.56s-.18-6.37.49-10.71c.98-6.31,3.46-9.07,6.32-10.68s9.5-.69,14.97.19c5.46.88,12.16,3.64,12.16,3.64l.05,4.5-2.44-.69Z"/>
        <path class="cls-1" d="M417.72,47.02s-5.21-1.67-9.72-2.51c-7.52-1.39-14.84-3.44-18.06.39-1.92,2.28-2.25,11.1-2.25,11.1l26.9.92,7.94.37s.31,4.97-.97,10.22c-1.65,6.75-5.13,8.86-14.46,8.54-8.78-.3-23.4-4.49-23.4-4.49l.08-5.27s11.07,5.14,25.11,5.86c10.57.54,7.77-11.4,7.77-11.4l-33.42-.49s-.54-6.96.2-11.13c1.08-6.06,4.14-7.87,7.26-9.42,3.12-1.55,10.38-.68,16.35.16,5.97.84,14.33,2.92,14.33,2.92l-.99,4.88-2.66-.66Z"/>
      </g>
      <path class="cls-1" d="M114.32,164.41c-.33-1.62-.5-3.27-.78-4.9,0-1.38-.37-2.72-.42-4.09,0-.17-.03-.34-.06-.51-.27-1.34-.37-2.71-.62-4.06-.19-1.01-.26-2.04-.45-3.05-.11-.56-.16-1.13-.21-1.7-.13-1.48-.28-2.95-.43-4.43-.01-.11-.04-.22-.06-.34-.08-.62-.15-1.25-.22-1.87-.04-.4-.04-.8-.12-1.19-.13-.62-.16-1.24-.2-1.87-.02-.34-.01-.69-.09-1.02-.2-.9-.2-1.81-.25-2.73-.02-.4,0-.81-.08-1.2-.21-1.13-.23-2.27-.27-3.41-.02-.4,0-.81-.08-1.2-.25-1.36-.25-2.73-.3-4.1-.02-.4,0-.81-.07-1.19-.13-.68-.15-1.36-.16-2.05-.05-2.68-.33-5.36-.45-8.04,0-.11,0-.23-.02-.34-.21-1.07-.21-2.16-.24-3.24-.03-1.03-.02-2.06-.17-3.08-.12-.85-.15-1.7-.19-2.56-.08-1.71.01-3.43-.25-5.13-.03-.17,0-.34,0-.51-.02-.74-.01-1.49-.06-2.23-.1-1.65.05-3.31-.32-4.95-.01-.05,0-.11,0-.17-.04-2.34-.12-4.68-.13-7.02,0-3.03.07-6.05.07-9.08,0-4.51-.04-9.03-.06-13.54-.02-3.94-.02-7.88.12-11.82.01-.4,0-.81.07-1.2.14-.74.14-1.48.16-2.22.03-1.03.07-2.06.07-3.08,0-2.35.37-4.67.41-7.01,0-.11.01-.23.04-.34.22-.84.21-1.7.24-2.55.06-1.43.02-2.85.24-4.27.06-.39.04-.8.05-1.2.03-1.08.06-2.17.09-3.25.01-.4,0-.81.06-1.2.19-1.07.19-2.16.25-3.24.02-.34.01-.69.08-1.02.2-.96.22-1.93.29-2.9.02-.28,0-.58.06-.85.24-1.24.25-2.5.28-3.75,0-.23-.02-.46.03-.68.27-1.41.22-2.84.26-4.27.03-.91.02-1.83.22-2.73.03-.15-.03-.32-.05-.47-.14-.06-.25-.15-.33-.13-.39.08-.77.25-1.16.27-.93.05-1.8.35-2.63.71-1.26.55-2.56.97-3.86,1.4-.22.07-.42.17-.63.26-.68.29-1.36.6-2.04.88-.74.3-1.43.71-2.16,1.02-.94.4-1.85.9-2.74,1.4-1.33.76-2.54,1.74-3.94,2.4-.15.07-.28.2-.41.31-2.07,1.61-4.15,3.21-6.28,4.75-.37.27-.72.56-1.06.86-.77.68-1.49,1.42-2.3,2.05-1.08.85-2.06,1.81-3.09,2.71-1.81,1.58-3.36,3.42-4.94,5.23-.71.82-1.39,1.66-2.04,2.53-2.12,2.84-4.04,5.82-5.78,8.9-.93,1.64-1.78,3.32-2.48,5.07-.72,1.8-1.5,3.58-2.24,5.37-.63,1.53-1.18,3.09-1.56,4.71-.28,1.22-.67,2.42-1.1,3.6-.37,1.02-.69,2.06-1,3.1-.29.98-.62,1.97-.81,2.97-.45,2.47-1.16,4.89-1.55,7.37-.46,1.54-.59,3.14-.85,4.71-.11.68-.28,1.34-.34,2.02-.13,1.65-.43,3.28-.42,4.95,0,.74.02,1.49-.09,2.22-.19,1.19-.2,2.39-.22,3.59-.07,4.17,0,8.34.07,12.51,0,.23.01.46.05.68.26,1.42.15,2.84.02,4.16.07.78.13,1.47.19,2.15.04.4.02.81.12,1.19.17.67.18,1.36.25,2.04.04.4.1.79.15,1.19.06.45.12.9.17,1.36.05.4.04.8.13,1.19.17.73.21,1.47.21,2.21,0,1.55.27,3.07.48,4.6.16,1.24.31,2.49.52,3.73.19,1.12.27,2.27.47,3.39.33,1.85.71,3.7,1.08,5.54.4,2.01.82,4.02,1.23,6.03.38,1.84.75,3.69,1.18,5.52.69,2.94,1.5,5.86,2.31,8.77.29,1.04.68,2.07.88,3.13.2,1.13.62,2.2.86,3.31.06.27.24.51.36.75.51.21.98.41,1.45.61,2.09.88,4.71,1.64,7.05,2.05.67.12,1.35.26,2.01.44,1.49.4,2.98.76,4.49,1.06,1.85.37,3.7.68,5.55,1,.04,0,.09-.05.18-.1,0-.14.05-.32,0-.45-.55-1.32-1.14-2.62-1.68-3.94-1.26-3.06-2.36-6.18-3.47-9.31-.92-2.58-1.65-5.22-2.34-7.87-.94-3.59-1.83-7.18-2.78-10.77-.42-1.6-.87-3.19-1.18-4.82-.18-.89-.26-1.8-.49-2.69-.2-.77-.36-1.55-.52-2.34-.14-.67-.29-1.34-.4-2.01-.26-1.58-.73-3.11-.87-4.71-.26-.88-.23-1.81-.41-2.7-.24-1.18-.24-2.38-.51-3.56-.05-1.43-.4-2.83-.43-4.26,0-.17-.03-.34-.08-.51-.15-.5-.14-1.01-.17-1.53-.09-1.31-.16-2.62-.3-3.92-.14-1.3-.09-2.62-.11-3.94,0-.23.08-.44.29-.6.31-.15.66-.13,1-.13,1.6-.02,3.2.04,4.78-.24.11-.02.23,0,.34-.01,2.97-.05,5.94-.06,8.91,0,.28,0,.58,0,.85.06.57.12,1.14.1,1.7.13,1.65.09,3.31,0,4.95.34.28.06.57.04.85.06.51.02,1.03.03,1.54.07.16.01.3.12.48.2.03.23.08.45.08.68.02,1.43.05,2.86.05,4.28,0,2-.04,4-.04,6,0,1.71.03,3.43.03,5.14.02,5.66.03,11.31.04,16.97,0,.51,0,1.03.06,1.54.08.57.1,1.14.1,1.71.03,4.34.06,8.68.09,13.02.03,5.31.06,10.63.09,15.94,0,.34,0,.69-.02,1.03-.1,1.2-.07,2.4-.01,3.6,0,.16.08.32.13.51.33.09.66.25.99.27,1.25.06,2.5.19,3.74.39.17.03.34.03.51.04.91.02,1.83.04,2.74.07.51.01,1.03,0,1.54.07.68.11,1.36.1,2.05.12,1.26.03,2.51.1,3.77.12,1.48.02,2.97,0,4.45,0,.05,0,.12-.02.16-.05.09-.06.18-.13.28-.21-.09-.66-.18-1.34-.28-2.02-.03-.23-.11-.44-.15-.67ZM93.76,83.57c-.65.12-1.27.23-1.88.33-.28.04-.57.07-.85.07-2.11.04-4.22.06-6.34.1-.63.01-1.25.06-1.88.06-.45,0-.91-.05-1.36-.06-1.03-.03-2.05-.06-3.08-.09-.68-.02-1.37-.03-2.04-.2-.11-.03-.23-.04-.34-.04-1.44.03-2.83-.3-4.25-.44-.91-.09-1.81-.24-2.71-.36-.19-.03-.4-.31-.35-.52.31-1.35.23-2.73.3-4.09.03-.57.02-1.14.14-1.7.1-.44.09-.91.14-1.36.06-.51.13-1.02.19-1.53.04-.28.1-.56.11-.85.04-1.55.33-3.06.64-4.57.14-.67.19-1.35.31-2.03.52-2.98,1.27-5.91,2-8.84.22-.89.43-1.77.65-2.66.53-2.05,1.14-4.06,1.87-6.05.92-2.52,1.85-5.04,2.91-7.5,1.09-2.51,2.22-5.01,3.63-7.37.29-.49.53-1.01.77-1.53.63-1.41,1.4-2.74,2.29-4.01.52-.75,1-1.53,1.45-2.32,1.1-1.94,2.34-3.79,3.57-5.64.09-.14.23-.25.36-.36.03-.03.1-.04.15-.04.13,0,.23.06.26.18.05.22.11.44.13.67.07.85.04,1.71.27,2.55.07.27.06.57.08.85.02.28,0,.58.06.85.26,1.06.28,2.15.46,3.21.12.68.17,1.36.19,2.04.03,1.03.06,2.05.24,3.07.05.28.04.57.06.85.04.63.04,1.26.14,1.88.19,1.13.24,2.27.29,3.41.01.23,0,.46.05.68.21,1.13.17,2.27.2,3.41.04,1.43.03,2.86.14,4.28.29,3.76.15,7.53.23,11.3.04,1.94.07,3.88.1,5.82,0,.23,0,.46.03.68.26,1.76.22,3.53.28,5.3.03.91.04,1.82.16,2.73.11.85.06,1.71.1,2.57.06,1.25-.01,2.52.29,3.75.02,1.03.05,2.05.05,3.08,0,.15-.14.3-.2.42ZM208.54,128.8c-.07.33-.21.5-.38.66-.51.46-1.02.92-1.53,1.37-.21.19-.45.35-.65.55-2.14,2.07-4.5,3.87-6.83,5.71-1.03.81-2.03,1.66-3.06,2.47-1.08.84-2.1,1.76-3.25,2.48-.13.01-.21-.06-.18-.2.1-.51.19-1.01.07-1.52-.04-.16-.03-.34,0-.51.16-.96.14-1.94.18-2.9.04-.86.1-1.71.19-2.56.11-1.13.12-2.28.16-3.42.03-.91.04-1.83.05-2.74,0-.51.04-1.02.13-1.53.09-.5.08-1.02.11-1.54.07-1.02.05-2.05.26-3.07.09-.44.09-.91.1-1.37.04-1.83.07-3.66.09-5.48,0-.91,0-1.83.14-2.73.07-.45.05-.91.05-1.37.04-2.51.07-5.03.13-7.54.02-.8.05-1.59.17-2.39.12-.84.07-1.71.09-2.57.03-1.37.05-2.74.08-4.11,0-.19-.23-.48-.4-.5-.06,0-.11-.03-.17-.03-.8-.05-1.59-.18-2.38-.28-1.13-.14-2.28-.14-3.42-.19-.46-.02-.91,0-1.36-.11-.68-.16-1.38-.16-2.05-.06-1.08.17-2.16.12-3.24.23-.28.03-.56.07-.85.11-.07.18-.18.34-.18.49-.03,10.06-.04,20.11-.06,30.17,0,1.71.09,3.43.05,5.14-.08,3.6,0,7.2-.07,10.8-.06,2.97.06,5.94.02,8.91,0,.57-.01,1.14-.02,1.59-.13.34-.3.49-.49.61-.91.59-1.83,1.17-2.74,1.76-.57.37-1.17.73-1.7,1.15-.77.61-1.61,1.08-2.49,1.5-1.9.92-3.78,1.88-5.75,2.65-1.54.6-3.11,1.13-4.69,1.61-.23.07-.45.02-.59-.27,0-.18-.03-.42,0-.64.21-1.58.23-3.19.53-4.76.01-.06.03-.11.03-.17.1-1.54.4-3.06.41-4.6,0-.63.02-1.26.06-1.88.04-.63.05-1.25.18-1.87.1-.44.08-.91.13-1.36.06-.57.13-1.13.2-1.7.05-.45.1-.91.15-1.36.03-.34.01-.69.09-1.02.25-1.12.21-2.27.34-3.4.16-1.42.18-2.85.46-4.25.11-.56.09-1.14.13-1.71.06-.97.08-1.93.22-2.9.12-.84.1-1.71.13-2.57.02-.69.02-1.37.22-2.04.03-.11.05-.22.06-.34.06-1.48.33-2.95.34-4.44.02-2.28.07-4.57.13-6.85.02-.74.11-1.48.18-2.4-.21-.59-.21-1.38-.19-2.18.02-.57.01-1.14.02-1.71,0-.68,0-1.36.12-2.05.1-.56.08-1.14.09-1.71.05-2.57.1-5.14.15-7.71.01-.8.04-1.59.13-2.39.11-1.02.08-2.05.1-3.08.04-2.23.08-4.46.09-6.68,0-1.77,0-3.54-.05-5.31-.08-2.91-.09-5.83-.09-8.74,0-.63.03-1.26-.12-1.88-.05-.22-.05-.45-.06-.68-.02-1.26-.06-2.51-.05-3.77.01-2.29-.07-4.57-.15-6.85,0-.06,0-.12,0-.17-.27-1.36-.13-2.73-.19-4.1-.05-1.25-.08-2.51-.3-3.75-.16-.9-.2-1.81-.32-2.72-.11-.9-.09-1.82-.11-2.74-.02-1.09,0-2.17-.27-3.24-.06-1.6-.46-3.17-.45-4.77,0-.34,0-.69-.08-1.02-.17-.73-.14-1.48-.29-2.21-.32-1.52-.22-3.07-.54-4.59-.08-.39-.07-.8-.09-1.19-.04-.57-.06-1.14-.2-1.7-.07-.28-.09-.56-.11-.85-.14-1.54-.38-3.06-.61-4.58-.14-.9-.24-1.81-.41-2.71-.1-.56-.16-1.13-.29-1.69-.08-.33-.06-.68-.06-1.02,0-.09.11-.17.17-.26.51.1.96.36,1.42.57,2.32,1.1,4.56,2.37,6.83,3.58.5.27,1.02.52,1.51.8.94.55,1.86,1.12,2.77,1.71,1.86,1.23,3.68,2.51,5.61,3.63.19.11.34.29.5.44.01.26.04.49.03.72-.03,1.6-.07,3.2-.11,4.8,0,.17,0,.34-.03.51-.31,1.98-.22,3.99-.3,5.98-.03.68-.04,1.37-.15,2.05-.08.45-.07.91-.09,1.37-.04,1.26-.07,2.51-.11,3.77-.03.86-.02,1.71-.17,2.56-.07.39-.05.8-.06,1.2-.04,2.51-.08,5.03-.13,7.54,0,.46-.01.92-.06,1.37-.15,1.31-.16,2.62-.02,3.93,0,.06.03.12.02.17-.14.91-.08,1.82-.01,2.73.06.91.06,1.82.08,2.74.04,1.6.07,3.2.11,4.8.02.68.07,1.36.14,2.05.12,1.02.13,2.05.16,3.08.04,1.03.06,2.05.19,3.08.07.56.05,1.14.06,1.71.02,1.09.03,2.17.05,3.26,0,.23.1.44.38.64,1.16.13,2.4.3,3.64.4.97.08,1.94.03,2.89.26.38.09.8.01,1.2.02.8.01,1.6.04,2.4.05.8.01,1.6-.01,2.39-.18.44-.09.91-.08,1.36-.15.15-.02.29-.15.46-.24-.04-1.26.1-2.52-.14-3.76-.04-.22-.05-.45-.05-.68-.03-2-.07-4-.09-6-.03-2.63-.04-5.26-.06-7.88,0-.23.02-.46-.02-.68-.25-1.76-.22-3.53-.31-5.3-.03-.68-.08-1.36-.18-2.04-.11-.73-.1-1.48-.13-2.22-.03-.63-.11-1.25-.19-1.87-.18-1.47-.5-2.93-.52-4.42,0-.62-.2-1.24-.23-1.87-.08-1.6-.42-3.17-.45-4.77,0-.34-.08-.68-.13-1.02-.05-.34-.12-.68-.14-1.02-.07-.85-.1-1.71-.29-2.55-.07-.33-.07-.68-.09-1.02-.05-.74-.05-1.48-.23-2.21-.07-.27-.06-.57-.09-.85-.06-.8-.09-1.6-.28-2.38-.05-.22-.02-.45-.02-.68,0-.15.24-.31.37-.24.35.2.7.38,1.04.6,2.52,1.58,4.96,3.27,7.35,5.03,2.43,1.8,4.83,3.64,7.24,5.47.27.2.5.46.73.68.02.27.06.49.06.72-.04,3.6-.09,7.2-.14,10.8-.01.91-.03,1.83-.05,2.74-.01.34-.07.68-.1,1.02-.03.28-.07.57-.07.85-.03,1.26-.03,2.51-.06,3.77-.03,1.43,0,2.85-.23,4.27-.08.5-.05,1.03-.06,1.54-.02,2.97.02,5.94-.05,8.91-.18,7.66-.01,15.31.08,22.97,0,.29-.02.58.02.86.23,1.48.15,2.96.17,4.45.05,3.03.06,6.06.1,9.08.02,1.37.01,2.74.2,4.1.1.73.06,1.48.09,2.23.05,1.31.05,2.62.25,3.93.1.67.09,1.37.11,2.05.03,1.03.05,2.05.23,3.07.05.28.04.57.05.76ZM48.37,12.35c-.06.39-.17.78-.19,1.18-.05.91-.2,1.81-.36,2.71-.3,1.63-.57,3.26-.79,4.9-.23,1.75-.51,3.5-.65,5.26-.35,1.45-.23,2.96-.52,4.42-.09.44-.07.91-.09,1.37-.05.97-.09,1.93-.23,2.9-.12.79-.1,1.59-.13,2.39-.05,1.2-.03,2.39-.24,3.58-.09.5-.06,1.03-.09,1.54-.13,2.28-.35,4.55-.41,6.84,0,.17,0,.35-.04.51-.31,1.46-.26,2.95-.32,4.44-.03.74-.02,1.48-.14,2.22-.07.39-.04.8-.05,1.2-.05,1.94-.09,3.88-.14,5.83,0,.34.02.69-.04,1.03-.26,1.47-.21,2.96-.28,4.44-.05.97,0,1.94-.18,2.9-.02,2.06-.04,4.11-.06,6.17.28,1.7.18,3.42.23,5.12.05,1.66.05,3.31.06,4.97,0,1.77-.02,3.54-.02,5.31,0,.74.02,1.48.03,2.23.04,2.8,0,5.6-.04,8.4-.03,2.11,0,4.23,0,6.34,0,.86,0,1.71,0,2.57.03,2.11.07,4.23.11,6.34,0,.06,0,.12,0,.17.31,2.1.17,4.22.23,6.33.03,1.25.03,2.51.22,3.76.13.84.1,1.71.14,2.56.05,1.08.04,2.16.22,3.24.12.73.06,1.48.11,2.22.06.91.08,1.82.23,2.73.12.73.09,1.48.1,2.22.05,2.06.08,4.11.12,6.17,0,.17,0,.34.02.51.29,2.16.14,4.33.24,6.5,0,.06-.02.11-.03.17-.07.08-.14.17-.25.29-.25-.03-.56,0-.8-.09-2.32-.95-4.67-1.84-6.99-2.78-.95-.39-1.87-.86-2.83-1.21-1.29-.47-2.53-1.04-3.77-1.63-.62-.29-1.21-.63-1.8-.98-.08-.17-.18-.31-.21-.47-.04-.22-.03-.45-.03-.68,0-.97,0-1.94,0-2.91,0-.63.01-1.25.13-1.88.09-.45.09-.91.12-1.36.06-.97.06-1.94.26-2.9.06-.28.05-.57.06-.85.06-1.25.07-2.51.28-3.75.07-.45.05-.91.07-1.37.07-1.25.06-2.51.24-3.76.12-.84.09-1.71.12-2.57.05-1.31.04-2.62.26-3.93.1-.61.06-1.25.1-1.88.05-.91.07-1.82.21-2.73.13-.84.11-1.71.14-2.56.05-1.71.08-3.42.23-5.13.1-1.14.08-2.28.1-3.42.04-2.17.06-4.34.1-6.51,0-.29-.03-.58.03-.85.19-.85.13-1.7.15-2.56.01-.69.03-1.37.04-2.06,0-.34-.01-.68-.02-.91-.17-.4-.42-.53-.71-.58-.28-.04-.57-.05-.85-.07-.34-.03-.7,0-1.02-.09-1.18-.3-2.38-.24-3.58-.33-.85-.06-1.71-.02-2.56-.17-.55-.1-1.16-.11-1.71,0-.96.18-1.93.15-2.9.2-1.09.05-2.16.17-3.22.44-.07.09-.14.17-.25.31,0,.52-.03,1.09-.02,1.66,0,2-.04,4-.01,6,.04,2.34,0,4.68.01,7.03.02,3.43.06,6.85.09,10.28,0,.4,0,.81.07,1.2.19,1.02.15,2.05.29,3.07.27,1.93.23,3.87.25,5.81.02,1.25,0,2.51.25,3.75.09.44.07.91.11,1.36.06.57.14,1.13.2,1.7.05.4.1.79.13,1.19.06.68.09,1.36.23,2.04.14.73.16,1.48.1,2.22,0,.09-.11.18-.18.3-.15-.05-.33-.06-.47-.15-.43-.28-.84-.59-1.27-.88-.61-.41-1.21-.86-1.87-1.2-.51-.26-.96-.61-1.37-1.02-.41-.4-.87-.73-1.34-1.06-1.07-.75-2.14-1.52-3.16-2.35-.83-.69-1.73-1.31-2.61-1.93-.94-.66-1.79-1.41-2.66-2.15-.13-.11-.21-.27-.33-.42-.18-.9-.09-1.81.03-2.71.05-.4.12-.79.1-1.19-.01-.34-.06-.68-.04-1.02.09-1.37.2-2.73.31-4.1.04-.51.11-1.02.13-1.53.05-1.31.07-2.63.11-3.94.03-.8.03-1.6.14-2.39.08-.56.06-1.14.06-1.71.05-4.63.1-9.25.16-13.88,0-.74,0-1.48.12-2.22.07-.39.05-.8.05-1.2.04-4.28.08-8.57.1-12.85,0-1.71-.06-3.43-.09-5.14,0-.28,0-.58-.06-.85-.18-.9-.17-1.82-.19-2.73-.03-1.14.02-2.28-.24-3.41-.1-.44-.05-.91-.05-1.37-.02-1.94-.03-3.88-.05-5.83-.01-.74-.05-1.48-.2-2.21-.1-.5-.08-1.02-.09-1.54-.02-.86-.03-1.71-.05-2.57-.01-.4,0-.81-.09-1.2-.23-1.13-.22-2.27-.29-3.41-.02-.28,0-.58-.05-.85-.24-1.07-.23-2.16-.28-3.24-.07-1.77-.33-3.52-.5-5.32.08-.1.17-.26.31-.35,1.08-.75,2.17-1.48,3.26-2.21.09-.06.2-.12.28-.19,1.25-1.09,2.68-1.95,3.99-2.95.41-.31.78-.66,1.17-1,.99-.86,1.98-1.72,3.02-2.52,1.13-.87,2.26-1.74,3.39-2.61.81-.63,1.63-1.25,2.44-1.88.04-.03.11-.02.17-.03.12.02.2.11.17.23-.16.73-.22,1.46-.26,2.21-.02.45-.1.91-.16,1.36-.02.17-.07.34-.07.51-.03,1.66-.32,3.29-.46,4.94-.07.91-.2,1.81-.29,2.72-.09.91-.04,1.83-.24,2.73-.08.39-.06.8-.09,1.19-.08,1.14-.07,2.28-.3,3.41-.09.44-.05.91-.08,1.37-.06.85-.06,1.71-.23,2.56-.1.5-.07,1.02-.09,1.54-.03,1.08-.06,2.17-.09,3.25,0,.17,0,.34,0,.51-.31,2.79-.19,5.59-.32,8.38-.04.91-.05,1.82-.19,2.73-.11.67-.08,1.37-.1,2.05-.04,1.94-.06,3.88-.1,5.83,0,.4-.07.79-.11,1.19-.12,1.48-.17,2.95-.13,4.4.12.11.2.22.29.24.77.22,1.55.39,2.35.42.4.01.79.09,1.19.13.62.06,1.25.15,1.87.17.8.03,1.6,0,2.38.23.11.03.23.03.34.03,1.43.01,2.86.03,4.28.04.17,0,.34-.01.51-.03.96-.12,1.92-.24,2.93-.36.05-.05.12-.14.24-.26.01-.42.03-.87.03-1.33,0-2.63,0-5.25,0-7.88,0-3.31-.02-6.63-.03-9.94,0-.8,0-1.6,0-2.4,0-.8.02-1.59-.14-2.39-.09-.44-.02-.91-.06-1.37-.2-2.28-.12-4.57-.13-6.85,0-.91,0-1.82-.13-2.73-.12-.79-.07-1.6-.1-2.39-.03-1.08-.06-2.17-.1-3.25-.02-.46,0-.92-.1-1.37-.14-.68-.15-1.36-.18-2.04-.05-1.03-.05-2.05-.26-3.07-.07-.33-.05-.68-.07-1.02-.07-1.02-.06-2.05-.29-3.07-.07-.33-.06-.68-.08-1.02-.03-.46-.01-.92-.1-1.37-.24-1.24-.24-2.5-.31-3.75-.04-.68-.04-1.37-.17-2.05-.05-.28-.04-.57-.05-.85,0-.11.04-.22.06-.34.11-.27.35-.45.58-.61.7-.49,1.41-.98,2.12-1.45.28-.19.59-.34.89-.5.45-.24.92-.45,1.36-.71.54-.32,1.08-.63,1.67-.87.16-.06.32-.13.46-.23,1.08-.77,2.3-1.28,3.48-1.83,1.55-.72,3.1-1.46,4.68-2.11,1.26-.51,2.52-1.05,3.82-1.4.14.05.22.13.2.25ZM156.51,120.43c.1,3.31.08,6.63-.07,9.94-.04.85-.18,1.7-.26,2.55-.07.85-.11,1.7-.28,2.55-.16.84-.25,1.69-.38,2.54-.72,4.7-1.95,9.26-3.54,13.73-.21.59-.44,1.18-.69,1.75-1.19,2.72-2.37,5.44-3.76,8.07-.05.1-.14.18-.29.35-1.66.44-3.25.87-4.85,1.29-1.16.3-2.33.55-3.52.72-1.52.22-3.02.6-4.54.84-1.63.26-3.25.6-4.89.85-1.47.22-2.95.29-4.42.51-.9.13-1.82.05-2.74.06-.1,0-.2-.08-.31-.13,0-.11-.04-.24,0-.33.7-1.38,1.4-2.75,2.11-4.11.5-.96,1.02-1.91,1.51-2.88.49-.97,1-1.92,1.62-2.82.58-.85,1.09-1.75,1.52-2.68.82-1.76,1.66-3.51,2.44-5.29.37-.83.64-1.71.94-2.57.19-.54.33-1.1.55-1.62.53-1.21.93-2.46,1.29-3.72.46-1.59.92-3.18,1.32-4.78.36-1.44.66-2.89.96-4.34.17-.78.27-1.58.45-2.35.16-.67.23-1.35.31-2.03.08-.62.21-1.24.34-1.85.5-2.47.75-4.96.7-7.48-.04-2-.06-4-.09-6,0-.11,0-.23,0-.34-.19-1.41-.27-2.84-.43-4.26-.33-2.78-.92-5.51-1.58-8.23-.26-1.05-.6-2.08-.79-3.15-.43-2.3-1.05-4.56-1.67-6.81-.18-.66-.31-1.33-.48-1.99-.27-1.05-.56-2.1-.85-3.14-.53-1.87-1.04-3.74-1.62-5.59-.44-1.42-.87-2.84-1.25-4.27-.47-1.77-.99-3.51-1.57-5.25-.42-1.25-.77-2.51-1.05-3.79-.48-2.18-1.13-4.3-1.79-6.43-.97-3.11-1.72-6.27-2.53-9.42-.37-2.14-.93-4.23-1.21-6.39-.1-.79-.24-1.58-.41-2.36-.14-.62-.21-1.24-.25-1.86-.02-.34-.03-.69-.11-1.02-.14-.62-.16-1.25-.21-1.87-.06-.74-.14-1.48-.2-2.22-.11-1.31-.14-2.63,0-3.93.14-1.31.17-2.62.21-3.93.05-1.72.29-3.4.57-5.09.19-1.12.4-2.24.53-3.38.14-1.19.42-2.36.68-3.53.24-1.06.55-2.1.82-3.15.69-2.67,1.8-5.17,3.01-7.63.35-.72.77-1.4,1.24-1.99.35-.23.7-.19,1.04-.12.73.15,1.45.33,2.17.49,4.29.99,8.47,2.33,12.62,3.75,2.48.85,4.94,1.79,7.39,2.73.42.16.88.27,1.21.62.05.09.03.19-.06.29-.72.73-1.42,1.48-2.17,2.19-1.16,1.11-2.25,2.27-3.18,3.58-.43.61-.9,1.18-1.37,1.75-2.7,3.29-4.81,6.94-6.4,10.88-.47,1.16-.91,2.34-1.37,3.51-.61,1.54-1.05,3.13-1.34,4.77-.14.79-.29,1.57-.46,2.35-.11.51-.16,1.01-.16,1.53.02,1.88.02,3.77.07,5.65.02.68.15,1.36.2,2.04.05.68.11,1.36.27,2.03.17.72.25,1.46.34,2.2.26,2.15.68,4.28,1.09,6.41.27,1.4.59,2.79,1.01,4.15.2.65.39,1.31.57,1.97.67,2.37,1.55,4.66,2.41,6.95.84,2.24,1.61,4.52,2.62,6.7.1.21.19.42.24.64.25,1.06.67,2.06,1.07,3.07.79,2.02,1.57,4.04,2.35,6.07.56,1.44,1.08,2.88,1.81,4.25.35.65.57,1.37.87,2.05.37.83.78,1.65,1.14,2.48.34.78.66,1.58.97,2.38,1.2,3.09,2.16,6.25,2.86,9.49.34,1.56.65,3.13.87,4.71.19,1.35.48,2.7.49,4.08,0,.11,0,.23.02.34.28,1.41.26,2.84.31,4.27Z"/>
    </g>
  </g>
</svg>