<?xml version="1.0" encoding="UTF-8"?>
<svg id="Layer_2" data-name="Layer 2" xmlns="http://www.w3.org/2000/svg" viewBox="0 0 462.14 497.84">
  <defs>
    <style>
      .cls-1 {
        fill: #fff;
      }
    </style>
  </defs>
  <g id="Layer_1-2" data-name="Layer 1">
    <g>
      <path class="cls-1" d="M461.94,237.7c.26-1.43-.07-2.97-.14-4.47-.04-.76.28-1.55.2-2.3-.2-1.77.01-3.62-.53-5.31-.43-1.33-.31-2.64-.49-3.95-.14-1.06.47-1.97.16-3.08-.28-1-.11-2.14-.11-3.22-.01-3.25,0-6.5-.02-9.74,0-.16-.1-.33-.15-.52-.43-.17-.88-.35-1.26-.49v-1.64c.54-.23.98-.41,1.32-.56v-3.37c-.78.38-1.46.71-2.28,1.12-1.41-.86-2.83-1.74-4.21-2.58v-1.56c2.03-1.39,4.21-1.81,6.59-1.15,0-2.03.14-3.94-.04-5.81-.18-1.94.15-3.84.08-5.77-.06-1.5.48-3.09.19-4.5-.23-1.11.4-2.07.07-2.98-.34-.93-.26-1.65.02-2.56.19-.63-.12-1.43-.16-2.15-.16-2.76-.5-5.53.35-8.24-.16-.59-.47-1.18-.46-1.77.03-2.55.15-5.09.23-7.64.02-.69.08-1.38.05-2.07-.06-1.35-.52-2.81-.17-4.02.37-1.27.34-2.47.35-3.7.04-4.6,0-9.2.04-13.81,0-1.05.2-2.09.27-2.83-.12-.96-.27-1.65-.27-2.34,0-2.45,0-4.9,0-7.35-30.63-10.85-66.65-24.8-93.84-38.88C313.36,50.34,249.6,5.68,241.54,0l-2.26,1.09c-18.88,12.86-73.49,49.29-120.87,73.3C83.85,91.9,35.19,109.08,1.23,120.18c.03.36.04.73.02,1.1-.09,1.43-.1,2.99.13,4.39.35,2.08.38,4.04-.25,5.97.2.55.39,1.04.51,1.36-.19.87-.43,1.54-.47,2.23-.07,1.26-.16,2.54,0,3.78.16,1.22-.35,2.35-.14,3.61.19,1.16-.29,2.43-.38,3.65-.07.9-.23,1.89.05,2.69.6,1.67.46,3.36.42,5.04-.04,2.04.27,4.09-.41,6.13-.29.87-.15,2.07.19,2.96.45,1.17-.41,1.99-.32,3.09.21,2.41.06,4.86.06,7.41.43.75.89,1.58,1.37,2.43-.44.51-.9,1.04-1.34,1.54.63,2.33-.22,4.78.81,6.99-.92,2.07.17,4.19-.09,6.29-.28,2.28-.39,4.58-.58,6.85.45,4.38-.9,8.84.22,13.33-.53,1.68-.59,8.29-.08,10.37-.28.92-.53,1.75-.78,2.59.22.85.25,1.69.21,2.53-.02.43-.28.89-.19,1.28.31,1.41.16,2.77-.01,4.18-.13,1.11.23,2.27.28,3.42.03.57-.15,1.15-.23,1.69.43.91.85,1.79,1.27,2.67-.54,2.19-.48,11.54-.02,13.2-.14.94-.39,1.57-.3,2.14.28,1.84-.07,3.66-.05,5.49.04,2.98.03,5.95,0,8.93-.01.87-.2,1.73-.34,2.89.3.94.73,6.72.25,7.94-.66,1.68-.58,3.43-.32,5.03.53,3.24.44,6.48.37,9.71-.03,1.39-.14,2.73.3,4.06.43.31.83.6,1.18.86-.31,1.79-.62,3.51-.91,5.24-.19,1.13-.48,2.26-.49,3.39-.08,7.02.12,14.06-.53,21.07-.16,1.76.23,3.56-.46,5.31-.24.61-.26,1.56.03,2.12.6,1.13.4,2.28.41,3.42.03,6.04.01,12.09.01,18.14v2.31c.44.34.76.57,1.06.8-.37.82-.65,1.45-.92,2.06.81,2.15,1.21,4.24.04,6.38-.23.42-.2,1.05-.17,1.57.12,1.89.07,3.77.22,5.67,16.48,5.39,36.48,12.22,56.66,19.83.15-.08.3-.15.45-.23.06.17.1.31.15.46,21.21,8.02,42.59,16.89,60.28,25.85,47.89,24.26,103.15,61.21,121.46,73.7l1.58.76c7.65-5.4,71.7-50.3,126.25-78.53,27.07-14.01,62.88-27.89,93.41-38.72-.18-2.92.05-5.84-.09-8.75-.06-1.17.04-2.35-.02-3.52-.04-.78-.24-1.55-.37-2.32.26-1.03.61-2.2.28-3.09-.5-1.35-.26-2.65-.4-3.97-.14-1.31-.31-2.63-.5-3.93-.22-1.48.36-2.92.09-4.41-.07-.37.37-.82.37-1.23-.01-1.72,1.03-3.39.1-5.19-.27-.53-.1-1.46.13-2.09.3-.8.55-1.6.08-2.29-.64-.95.72-1.67.14-2.51-.68-.98-.35-2.09-.39-3.15-.05-1.44-.03-2.89,0-4.33.03-1.34.15-2.68.15-4.02,0-1.39-.15-2.78-.16-4.17-.02-3.43.17-6.87-.05-10.28-.21-3.27.85-6.51.07-9.78-.09-.39.13-.86.19-1.29.54-3.57.32-7.15.12-10.72,0-.12-.06-.24-.1-.3,0,.02,0,.03,0,.05-.05-.11-.03-.11,0-.05.48-3.54.21-6.67.25-9.77.05-3.16.29-6.35-.08-9.46-.36-3.02.9-6.07-.41-8.92.19-.33.41-.56.43-.8.21-2.84.45-5.69.55-8.54.09-2.43.02-4.87.03-7.31,0-1.16-.03-2.29.45-3.41.45-1.04-.26-2.14-.04-3.32ZM6.12,296.79c.36-.62.98-1.06,1.6-1.69.8.8,1.46,1.46,2.29,2.29-.6.78-1.14,1.49-1.6,2.1-.96-.21-1.68-.36-2.41-.52-.07-.13-.24-.28-.23-.41.07-.6.06-1.28.34-1.76ZM12.23,308.04c-.44.31-.85.6-1.4.99v2.85c-2.12.73-3.66-.79-5.38-.98-.24-.47-.43-.85-.72-1.42,1.27-.8,2.7-1.43,3.79-2.47,1.04-1,1.72-2.42,2.5-3.57,2.1.01,1.69,1.63,2.22,2.48-.35.73-.68,1.44-1.01,2.13ZM34.14,160.44c-.61-.04-1.22-.09-2.16-.15.45-1.03.77-1.77,1.26-2.92.63,1.16,1.33,1.78.9,3.07ZM41.19,149.48c-.48-.36-1.02-.75-1.7-1.25-.21-.92-.45-2-.67-3.03q2.13-1.19,5.16-.12c-.14,2.01-.66,3.74-2.79,4.4ZM44.24,178.25c-.25-.79-.48-1.52-.83-2.62.86.6,1.48,1.02,2.07,1.43.17.96-.1,1.43-1.24,1.18ZM50.05,389.33c-.31.09-.54.15-.92.25-1.02-1.18-2.54-2.1-1.81-4.52,1.04.55,1.84.97,2.73,1.44v2.83ZM52.16,297.62q-1.9,1.13-3.48.21c-.13-3.72-.02-3.91,2.55-4.65,1.35,1.24.92,2.9.93,4.44ZM54.63,201.71c.21-.28.24-.38.31-.42.36-.21.73-.4,1.13-.61,1.07,2.29,1.55,4.76,2.03,7.24-1.18-2.13-2.77-3.99-3.47-6.22ZM426.58,315.89c.01.14.02.29.03.43h-1.09c0-.08-.02-.17-.03-.25.36-.06.72-.12,1.08-.19ZM144.6,136.55c-.08,1.39-.3,2.75-.55,4.12-.46,2.47-.87,4.95-1.2,7.45-.35,2.66-.77,5.32-1,8-.53,2.21-.35,4.5-.79,6.72-.13.68-.1,1.38-.14,2.08-.08,1.47-.14,2.94-.35,4.41-.18,1.2-.16,2.42-.2,3.64-.07,1.82-.04,3.64-.36,5.45-.14.76-.09,1.56-.13,2.34-.2,3.47-.54,6.92-.63,10.4,0,.26,0,.53-.06.78-.47,2.23-.4,4.49-.48,6.74-.04,1.13-.03,2.25-.22,3.37-.1.59-.06,1.21-.07,1.82-.07,2.95-.14,5.9-.21,8.86-.01.52.02,1.05-.07,1.56-.39,2.24-.31,4.5-.42,6.75-.07,1.47,0,2.95-.27,4.41-.03,3.13-.06,6.25-.09,9.38.43,2.58.28,5.19.36,7.79.08,2.52.08,5.04.08,7.55,0,2.69-.03,5.38-.03,8.08,0,1.13.03,2.26.05,3.39.06,4.25,0,8.51-.06,12.76-.05,3.21-.01,6.43,0,9.64,0,1.3-.01,2.6,0,3.91.05,3.21.11,6.42.16,9.64,0,.09,0,.18,0,.26.46,3.19.27,6.41.35,9.62.05,1.91.05,3.81.34,5.71.19,1.28.15,2.6.21,3.9.08,1.64.07,3.29.33,4.93.18,1.11.09,2.25.17,3.38.1,1.38.12,2.77.35,4.15.18,1.1.13,2.25.16,3.38.07,3.12.12,6.25.19,9.37,0,.26,0,.52.03.78.43,3.28.22,6.59.37,9.88,0,.08-.03.17-.05.26-.11.13-.22.26-.38.44-.38-.04-.84.01-1.22-.14-3.53-1.45-7.1-2.79-10.63-4.23-1.44-.59-2.84-1.31-4.3-1.85-1.96-.71-3.84-1.59-5.73-2.47-.95-.45-1.84-.95-2.73-1.49-.12-.25-.27-.48-.32-.72-.06-.34-.05-.69-.05-1.04,0-1.48,0-2.95,0-4.43,0-.96.02-1.9.2-2.85.13-.68.14-1.38.18-2.07.09-1.47.09-2.95.4-4.4.09-.42.08-.86.1-1.3.09-1.91.11-3.82.42-5.71.11-.68.07-1.39.11-2.08.11-1.9.09-3.81.36-5.71.18-1.28.13-2.6.19-3.9.08-1.99.06-3.99.39-5.97.16-.93.1-1.91.15-2.86.07-1.38.11-2.77.32-4.15.19-1.28.17-2.6.21-3.9.07-2.6.12-5.2.34-7.8.15-1.73.13-3.47.16-5.21.06-3.3.1-6.6.15-9.9,0-.43-.04-.88.05-1.3.28-1.29.2-2.59.22-3.89.02-1.04.05-2.08.06-3.13,0-.52-.02-1.03-.03-1.38-.26-.61-.65-.81-1.09-.88-.43-.06-.86-.07-1.3-.11-.52-.04-1.06,0-1.55-.13-1.79-.46-3.62-.37-5.44-.5-1.29-.09-2.59-.03-3.89-.26-.84-.15-1.76-.16-2.59,0-1.47.28-2.94.23-4.41.3-1.65.08-3.29.25-4.89.66-.11.13-.21.26-.38.47-.01.79-.04,1.66-.04,2.52,0,3.04-.07,6.08-.02,9.12.06,3.56,0,7.12.02,10.68.03,5.21.09,10.42.14,15.63,0,.61-.01,1.23.1,1.82.29,1.54.22,3.12.44,4.66.42,2.94.34,5.89.39,8.83.03,1.91-.01,3.82.38,5.71.14.67.1,1.38.17,2.07.09.86.21,1.72.31,2.58.07.6.15,1.21.2,1.81.09,1.04.14,2.07.35,3.1.22,1.11.25,2.24.16,3.37-.01.14-.16.28-.27.45-.23-.07-.51-.09-.71-.22-.66-.42-1.28-.9-1.93-1.33-.93-.63-1.83-1.31-2.85-1.82-.78-.39-1.46-.93-2.08-1.55-.62-.61-1.33-1.11-2.04-1.61-1.63-1.14-3.26-2.3-4.8-3.58-1.27-1.05-2.62-1.99-3.97-2.94-1.42-1-2.72-2.15-4.05-3.27-.19-.16-.32-.41-.5-.64-.28-1.36-.14-2.74.04-4.12.08-.6.18-1.2.16-1.81-.02-.52-.1-1.04-.06-1.55.14-2.08.3-4.15.46-6.23.06-.78.16-1.55.19-2.33.07-2,.1-3.99.16-5.99.04-1.21.04-2.43.22-3.64.12-.85.08-1.73.09-2.6.08-7.03.15-14.07.24-21.1.01-1.13,0-2.25.19-3.38.1-.59.07-1.21.08-1.82.06-6.51.13-13.03.15-19.54,0-2.6-.09-5.21-.14-7.81,0-.43,0-.87-.09-1.3-.27-1.37-.26-2.76-.29-4.15-.04-1.73.02-3.47-.37-5.18-.15-.66-.07-1.38-.08-2.08-.03-2.95-.04-5.9-.08-8.86-.02-1.13-.07-2.25-.3-3.37-.15-.76-.11-1.55-.14-2.33-.04-1.3-.04-2.6-.08-3.91-.02-.61,0-1.23-.13-1.82-.35-1.71-.33-3.45-.45-5.18-.03-.43.01-.88-.08-1.3-.36-1.62-.36-3.28-.42-4.92-.11-2.69-.51-5.35-.76-8.09.13-.15.26-.39.47-.53,1.64-1.13,3.3-2.25,4.95-3.37.14-.1.3-.18.43-.29,1.9-1.66,4.07-2.96,6.07-4.49.62-.47,1.19-1.01,1.78-1.52,1.51-1.31,3.01-2.61,4.6-3.83,1.72-1.32,3.44-2.64,5.15-3.97,1.23-.96,2.47-1.91,3.72-2.85.06-.05.17-.03.25-.05.18.04.3.16.26.35-.24,1.11-.33,2.23-.39,3.36-.03.69-.15,1.38-.24,2.07-.03.26-.11.51-.11.77-.05,2.52-.49,5.01-.69,7.51-.11,1.38-.31,2.76-.44,4.14-.13,1.38-.06,2.77-.36,4.15-.13.59-.1,1.21-.14,1.82-.12,1.73-.11,3.47-.45,5.18-.13.67-.08,1.38-.12,2.08-.09,1.3-.1,2.6-.35,3.89-.15.76-.11,1.56-.13,2.34-.05,1.65-.09,3.3-.13,4.95,0,.26.01.52-.01.78-.47,4.24-.29,8.5-.48,12.74-.06,1.39-.07,2.77-.29,4.15-.16,1.02-.13,2.08-.15,3.12-.06,2.95-.09,5.9-.15,8.85-.01.6-.11,1.21-.16,1.81-.19,2.24-.27,4.49-.2,6.69.19.16.3.33.45.37,1.17.33,2.35.59,3.58.63.6.02,1.21.13,1.81.19.95.1,1.9.23,2.85.27,1.22.04,2.43,0,3.62.35.16.05.34.05.52.05,2.17.02,4.34.04,6.51.06.26,0,.52-.02.78-.05,1.46-.18,2.92-.36,4.46-.55.07-.08.19-.21.36-.4.02-.64.05-1.33.05-2.02,0-3.99,0-7.99,0-11.98-.01-5.04-.03-10.07-.05-15.11,0-1.22,0-2.43-.01-3.65,0-1.21.03-2.42-.21-3.63-.13-.67-.03-1.39-.09-2.08-.3-3.47-.18-6.94-.2-10.41,0-1.39,0-2.77-.2-4.15-.18-1.19-.11-2.43-.15-3.64-.05-1.65-.09-3.3-.15-4.95-.02-.69,0-1.4-.14-2.08-.21-1.03-.22-2.07-.28-3.11-.08-1.56-.08-3.12-.4-4.66-.1-.51-.08-1.04-.11-1.56-.1-1.56-.09-3.12-.43-4.66-.11-.5-.09-1.04-.12-1.56-.05-.69-.02-1.4-.15-2.08-.36-1.89-.37-3.8-.47-5.7-.06-1.04-.06-2.08-.26-3.11-.08-.42-.07-.86-.07-1.3,0-.17.06-.34.09-.51.17-.42.53-.68.88-.93,1.07-.75,2.14-1.49,3.22-2.21.43-.29.9-.52,1.36-.76.69-.36,1.41-.69,2.07-1.08.82-.49,1.65-.96,2.53-1.32.24-.1.49-.2.7-.35,1.64-1.17,3.49-1.94,5.29-2.78,2.36-1.1,4.71-2.22,7.11-3.2,1.92-.78,3.83-1.6,5.81-2.13.21.07.33.2.3.38-.09.6-.26,1.19-.29,1.79ZM223.6,447.12c-1.87,1.25-4,.83-6.18.89-.39-.37-.82-.78-1.32-1.25.25-.48.37-1.16.72-1.34,2.14-1.1,4.33-2.09,6.78-.01v1.71ZM224.29,450.73c-.04-.83-.09-1.61-.14-2.62.99-.05,1.88-.1,2.79-.15.31.61.57,1.14.89,1.78-.84.61-1.45,1.06-2.16,1.58-.4-.17-.84-.36-1.38-.59ZM224.25,441.17c.84-.23,1.66-.43,2.72.28-.98.88-1.82.5-2.61.52-.05-.35-.07-.52-.11-.8ZM229.44,456.6h-1.95c-.09-.28-.28-.56-.23-.76.37-1.27.39-1.26,2.51-1.23-.11.65-.21,1.26-.34,1.99ZM232.54,449.11c-1.44-.13-2.63.47-3.22-1.1.66-1.84,2.14-.75,3.55-1.39-.14,1.02-.22,1.63-.33,2.49ZM245.39,370.33c-.07.05-.16.07-.25.07-2.26,0-4.51.03-6.77,0-1.91-.03-3.82-.13-5.73-.19-1.04-.03-2.08-.03-3.12-.19-.77-.12-1.56-.08-2.34-.1-1.39-.04-2.78-.06-4.17-.1-.26,0-.52-.01-.78-.05-1.88-.31-3.78-.5-5.68-.6-.5-.03-.99-.26-1.5-.4-.08-.29-.19-.53-.2-.77-.08-1.82-.14-3.64.02-5.47.04-.52.03-1.04.03-1.56-.04-8.08-.09-16.15-.14-24.23-.04-6.6-.09-13.2-.13-19.8,0-.87-.03-1.73-.15-2.6-.1-.77-.09-1.56-.09-2.34-.03-8.6-.04-17.19-.07-25.79,0-2.6-.05-5.21-.05-7.81,0-3.04.06-6.08.06-9.12,0-2.17-.04-4.34-.08-6.51,0-.34-.08-.67-.12-1.03-.27-.12-.5-.28-.73-.3-.78-.06-1.56-.07-2.34-.11-.43-.02-.88,0-1.3-.09-2.48-.52-5.01-.38-7.52-.52-.87-.05-1.73-.02-2.59-.2-.42-.09-.86-.09-1.3-.09-4.51-.09-9.03-.08-13.54,0-.17,0-.35-.01-.52.02-2.41.43-4.84.33-7.27.36-.52,0-1.04-.03-1.52.2-.31.23-.44.56-.44.91.04,2-.04,4.01.17,5.98.21,1.99.32,3.97.45,5.96.05.78.04,1.56.26,2.32.07.25.11.51.12.77.05,2.17.58,4.3.66,6.47.4,1.78.4,3.62.77,5.4.28,1.36.23,2.77.63,4.11.23,2.43.93,4.76,1.33,7.16.17,1.03.39,2.04.61,3.06.25,1.19.5,2.38.8,3.55.35,1.35.48,2.73.75,4.09.48,2.47,1.16,4.89,1.8,7.32,1.44,5.45,2.8,10.92,4.23,16.37,1.05,4.03,2.17,8.04,3.56,11.97,1.68,4.74,3.35,9.49,5.27,14.15.83,2.01,1.72,3.98,2.55,5.99.09.21.01.48.01.69-.13.07-.21.16-.27.15-2.82-.49-5.64-.96-8.44-1.52-2.3-.46-4.57-1.01-6.83-1.62-1-.27-2.03-.48-3.05-.66-3.55-.62-7.54-1.77-10.71-3.11-.72-.3-1.44-.6-2.21-.92-.18-.37-.45-.74-.54-1.14-.37-1.69-.99-3.32-1.3-5.03-.29-1.61-.89-3.17-1.33-4.76-1.23-4.43-2.46-8.86-3.51-13.33-.65-2.78-1.21-5.59-1.79-8.39-.64-3.06-1.26-6.11-1.88-9.17-.56-2.81-1.14-5.61-1.64-8.42-.3-1.71-.43-3.44-.72-5.15-.32-1.88-.54-3.78-.79-5.67-.31-2.32-.72-4.63-.72-6.99,0-1.13-.06-2.25-.32-3.36-.14-.59-.13-1.21-.2-1.81-.08-.69-.18-1.38-.26-2.06-.08-.6-.16-1.2-.23-1.81-.11-1.03-.13-2.07-.38-3.1-.14-.58-.13-1.21-.18-1.81-.09-1.04-.19-2.07-.29-3.26.19-2,.35-4.16-.03-6.32-.06-.34-.07-.69-.08-1.04-.1-6.34-.22-12.68-.11-19.01.03-1.82.05-3.64.34-5.45.17-1.11.15-2.25.14-3.38-.02-2.53.43-5.01.64-7.52.08-1.03.35-2.05.52-3.08.39-2.39.6-4.82,1.3-7.16.6-3.77,1.67-7.44,2.36-11.2.28-1.53.78-3.02,1.23-4.52.47-1.58.96-3.15,1.52-4.71.65-1.8,1.24-3.61,1.67-5.47.57-2.46,1.41-4.83,2.37-7.15,1.13-2.72,2.31-5.43,3.41-8.17,1.07-2.67,2.36-5.22,3.77-7.71,2.65-4.69,5.57-9.21,8.79-13.53.99-1.32,2.02-2.61,3.1-3.85,2.39-2.75,4.75-5.54,7.5-7.95,1.57-1.37,3.06-2.82,4.7-4.12,1.22-.97,2.32-2.09,3.49-3.12.52-.46,1.05-.91,1.61-1.31,3.23-2.34,6.39-4.77,9.55-7.21.21-.16.4-.36.63-.46,2.13-1,3.96-2.48,5.99-3.64,1.35-.77,2.73-1.53,4.16-2.14,1.12-.47,2.16-1.09,3.29-1.55,1.04-.42,2.07-.89,3.1-1.33.32-.14.63-.29.96-.4,1.98-.65,3.95-1.3,5.87-2.13,1.26-.55,2.59-.99,4-1.07.59-.03,1.17-.29,1.77-.41.13-.03.3.11.51.2.03.22.12.48.07.71-.3,1.37-.29,2.76-.34,4.14-.07,2.17,0,4.34-.4,6.49-.06.34-.03.69-.04,1.04-.05,1.91-.06,3.82-.43,5.7-.08.42-.06.86-.1,1.3-.11,1.47-.14,2.95-.44,4.4-.11.51-.09,1.04-.12,1.56-.09,1.65-.09,3.3-.38,4.93-.1.59-.07,1.21-.09,1.82-.05,1.65-.09,3.3-.14,4.95-.02.61.02,1.22-.07,1.82-.34,2.15-.28,4.33-.37,6.49-.06,1.3-.04,2.61-.37,3.88-.04.17-.06.34-.06.52-.05,3.56-.62,7.09-.62,10.66,0,1.56-.06,3.13-.1,4.69-.03,1.13-.02,2.25-.24,3.37-.12.59-.08,1.21-.1,1.82-.22,5.99-.21,11.98-.19,17.97.03,6.86.09,13.72.09,20.58,0,4.6-.11,9.2-.1,13.81,0,3.56.12,7.12.19,10.68,0,.09,0,.18.01.26.56,2.48.34,5.01.49,7.52.07,1.13.06,2.26.09,3.39,0,.26-.03.53.01.78.4,2.59.27,5.2.38,7.8.06,1.3.11,2.59.29,3.89.21,1.54.21,3.12.25,4.68.05,1.65.04,3.3.37,4.93.03.17.03.35.04.52.18,4.07.61,8.13.68,12.22.02,1.04.05,2.08.24,3.11.11.59.08,1.21.11,1.82.08,2.08.08,4.17.45,6.23.11.59.1,1.21.12,1.82.07,1.73.1,3.47.41,5.19.11.59.08,1.21.12,1.82.08,1.39.09,2.78.39,4.14.11.5.1,1.04.13,1.56.06.95.12,1.9.31,2.84.12.59.12,1.21.19,1.81.11.95.22,1.89.34,2.84.02.17.07.34.09.51.22,2.24.44,4.49.65,6.73.08.86.16,1.72.32,2.58.29,1.53.4,3.09.68,4.63.38,2.05.53,4.13.94,6.17.05.25.08.52.09.78.08,2.08.63,4.12.64,6.21.43,2.48.68,4.98,1.18,7.45.07.34.18.67.23,1.02.15,1.03.29,2.05.43,3.06-.16.12-.28.24-.42.33ZM302.23,421.49c-.11-.09-.22-.18-.33-.26.2-.26.41-.51.61-.77.09.07.18.14.26.21-.18.28-.36.55-.54.83ZM309.18,314.17c-.06,1.3-.28,2.59-.39,3.88-.11,1.3-.17,2.59-.42,3.88-.25,1.27-.38,2.57-.58,3.86-1.09,7.14-2.97,14.08-5.38,20.88-.32.9-.67,1.79-1.05,2.66-1.81,4.13-3.6,8.28-5.72,12.26-.08.15-.22.27-.45.54-2.52.67-4.94,1.32-7.37,1.96-1.76.46-3.54.83-5.35,1.09-2.31.34-4.59.91-6.9,1.28-2.48.4-4.94.91-7.43,1.29-2.23.34-4.49.45-6.72.77-1.36.2-2.77.08-4.16.09-.15,0-.31-.13-.47-.2,0-.17-.06-.37,0-.5,1.06-2.09,2.13-4.17,3.21-6.25.76-1.46,1.55-2.91,2.29-4.38.74-1.48,1.52-2.92,2.46-4.29.88-1.29,1.65-2.65,2.31-4.07,1.25-2.67,2.52-5.34,3.71-8.04.56-1.27.97-2.6,1.43-3.91.29-.82.49-1.67.84-2.46.8-1.84,1.41-3.73,1.96-5.65.69-2.42,1.4-4.83,2.01-7.27.55-2.18,1-4.4,1.46-6.6.25-1.19.41-2.4.69-3.58.24-1.02.35-2.05.47-3.08.12-.94.32-1.88.51-2.81.76-3.75,1.14-7.54,1.07-11.38-.06-3.04-.09-6.08-.14-9.11,0-.17.01-.35-.01-.52-.29-2.15-.4-4.32-.66-6.47-.5-4.22-1.4-8.38-2.4-12.51-.39-1.6-.91-3.17-1.21-4.79-.65-3.5-1.59-6.93-2.54-10.35-.28-1-.47-2.03-.73-3.03-.42-1.59-.84-3.19-1.29-4.77-.8-2.84-1.58-5.68-2.46-8.5-.67-2.15-1.32-4.31-1.89-6.49-.71-2.68-1.51-5.34-2.39-7.98-.63-1.89-1.17-3.81-1.6-5.76-.73-3.31-1.72-6.54-2.72-9.77-1.47-4.72-2.61-9.53-3.85-14.32-.56-3.25-1.42-6.44-1.83-9.71-.15-1.2-.36-2.4-.62-3.59-.21-.94-.32-1.88-.38-2.83-.03-.52-.05-1.05-.16-1.55-.21-.94-.24-1.89-.32-2.84-.1-1.12-.21-2.25-.31-3.37-.17-1.99-.22-4-.01-5.98.21-1.99.26-3.98.31-5.98.07-2.61.44-5.17.87-7.74.29-1.71.61-3.41.81-5.14.21-1.8.63-3.58,1.03-5.36.36-1.61.84-3.19,1.25-4.78,1.04-4.06,2.74-7.86,4.58-11.6.54-1.09,1.17-2.12,1.89-3.03.54-.35,1.07-.29,1.57-.19,1.1.23,2.2.5,3.3.75,6.52,1.5,12.87,3.54,19.19,5.7,3.78,1.29,7.5,2.71,11.23,4.15.64.24,1.34.41,1.83.94.07.14.05.29-.1.44-1.1,1.11-2.16,2.26-3.29,3.33-1.76,1.68-3.42,3.45-4.83,5.45-.65.92-1.37,1.8-2.08,2.67-4.11,5.01-7.31,10.54-9.74,16.54-.71,1.77-1.38,3.56-2.09,5.33-.93,2.35-1.6,4.77-2.04,7.25-.21,1.19-.44,2.39-.7,3.57-.17.77-.25,1.54-.24,2.33.03,2.86.03,5.73.1,8.59.02,1.04.22,2.07.3,3.1.08,1.04.17,2.07.41,3.09.25,1.1.39,2.22.52,3.34.4,3.27,1.03,6.51,1.66,9.74.41,2.13.9,4.24,1.53,6.31.3,1,.59,2,.87,3,1.01,3.6,2.35,7.08,3.66,10.57,1.28,3.41,2.45,6.87,3.98,10.18.15.31.29.64.37.97.38,1.61,1.02,3.13,1.62,4.66,1.2,3.07,2.38,6.15,3.57,9.22.85,2.18,1.64,4.38,2.75,6.46.53.99.87,2.08,1.33,3.11.56,1.27,1.18,2.51,1.74,3.77.52,1.19,1.01,2.4,1.48,3.61,1.82,4.7,3.28,9.5,4.35,14.43.52,2.37.99,4.76,1.33,7.16.29,2.06.73,4.1.74,6.2,0,.17,0,.35.04.52.43,2.14.4,4.32.46,6.48.15,5.04.13,10.07-.11,15.11ZM318.02,442.53c-1.24-.65-.9-1.6-.85-2.59,1.24.65.91,1.6.85,2.59ZM387.79,312.79c-.77.7-1.55,1.39-2.33,2.08-.33.29-.68.54-.99.84-3.25,3.15-6.85,5.89-10.39,8.68-1.56,1.24-3.08,2.53-4.66,3.75-1.64,1.28-3.19,2.68-4.93,3.77-.2.02-.32-.09-.28-.3.15-.77.29-1.53.11-2.32-.06-.25-.05-.52,0-.77.25-1.46.21-2.94.27-4.42.06-1.3.15-2.6.28-3.89.17-1.72.18-3.47.24-5.2.05-1.39.06-2.78.08-4.17.01-.78.06-1.55.19-2.33.13-.77.12-1.55.17-2.33.1-1.56.07-3.12.4-4.66.14-.67.13-1.38.14-2.08.05-2.78.1-5.56.13-8.34.01-1.39,0-2.77.21-4.16.1-.68.07-1.39.08-2.08.07-3.82.11-7.64.2-11.46.03-1.21.08-2.42.26-3.63.19-1.28.1-2.6.13-3.9.04-2.08.08-4.17.12-6.25,0-.29-.35-.72-.6-.76-.09-.01-.17-.05-.26-.05-1.21-.08-2.41-.28-3.61-.43-1.72-.21-3.46-.21-5.2-.28-.69-.03-1.38,0-2.07-.16-1.03-.24-2.1-.25-3.11-.09-1.64.26-3.29.19-4.93.34-.43.04-.85.11-1.29.17-.1.28-.27.51-.27.75-.04,15.29-.07,30.57-.08,45.86,0,2.6.13,5.21.08,7.81-.12,5.47.01,10.94-.1,16.41-.1,4.52.1,9.03.02,13.55-.01.87-.02,1.73-.03,2.42-.2.51-.46.74-.75.93-1.39.89-2.78,1.77-4.16,2.67-.87.57-1.77,1.11-2.59,1.75-1.17.92-2.45,1.64-3.78,2.28-2.89,1.39-5.75,2.86-8.75,4.03-2.34.92-4.73,1.71-7.14,2.45-.35.11-.68.03-.89-.41,0-.28-.04-.63,0-.97.32-2.41.36-4.84.8-7.24.02-.09.04-.17.05-.26.16-2.34.6-4.65.62-6.99,0-.95.03-1.91.09-2.86.06-.95.07-1.9.28-2.85.15-.67.12-1.38.19-2.07.09-.86.2-1.72.3-2.58.08-.69.16-1.38.22-2.07.05-.52.02-1.05.13-1.56.39-1.71.32-3.45.51-5.18.24-2.15.28-4.33.7-6.46.17-.84.14-1.73.2-2.59.1-1.47.12-2.94.33-4.41.18-1.28.16-2.6.2-3.9.03-1.04.03-2.08.34-3.1.05-.16.08-.34.09-.51.09-2.26.5-4.48.52-6.75.03-3.47.1-6.95.19-10.42.03-1.12.16-2.24.27-3.66-.31-.89-.32-2.1-.28-3.32.03-.87.02-1.74.02-2.61.01-1.04,0-2.07.19-3.11.15-.85.12-1.73.14-2.6.08-3.91.16-7.81.22-11.72.02-1.21.07-2.42.2-3.63.17-1.55.12-3.12.15-4.68.06-3.39.12-6.77.14-10.16.01-2.69,0-5.38-.07-8.08-.11-4.43-.14-8.86-.13-13.29,0-.95.04-1.91-.18-2.85-.08-.33-.08-.69-.08-1.04-.03-1.91-.09-3.82-.08-5.73.02-3.47-.11-6.95-.23-10.42,0-.09.01-.18,0-.26-.41-2.06-.2-4.15-.29-6.23-.08-1.91-.12-3.81-.45-5.7-.24-1.36-.31-2.75-.49-4.13-.17-1.37-.14-2.77-.16-4.16-.03-1.65,0-3.3-.4-4.92-.09-2.43-.7-4.81-.68-7.25,0-.52,0-1.05-.13-1.55-.26-1.11-.21-2.26-.44-3.35-.48-2.3-.34-4.67-.82-6.97-.12-.59-.1-1.21-.14-1.82-.06-.87-.09-1.73-.3-2.58-.1-.42-.13-.86-.17-1.29-.21-2.33-.58-4.64-.93-6.96-.21-1.37-.37-2.75-.62-4.12-.15-.85-.24-1.71-.44-2.56-.12-.5-.09-1.03-.09-1.55,0-.13.16-.26.25-.39.78.15,1.46.54,2.16.87,3.53,1.67,6.93,3.6,10.38,5.44.76.41,1.55.78,2.29,1.22,1.42.83,2.83,1.7,4.21,2.6,2.83,1.86,5.6,3.81,8.52,5.52.29.17.52.44.77.66.02.4.06.74.05,1.09-.05,2.43-.11,4.86-.17,7.29,0,.26,0,.52-.04.78-.47,3.02-.34,6.06-.46,9.1-.04,1.04-.05,2.08-.23,3.11-.12.68-.11,1.38-.13,2.08-.06,1.91-.1,3.82-.16,5.73-.04,1.3-.03,2.6-.27,3.89-.11.59-.08,1.21-.09,1.82-.07,3.82-.13,7.64-.19,11.46-.01.69-.02,1.39-.1,2.08-.22,1.99-.24,3.98-.03,5.97,0,.09.05.18.04.26-.21,1.38-.12,2.76-.02,4.15.1,1.38.09,2.77.12,4.16.06,2.43.1,4.86.16,7.29.03,1.04.1,2.07.22,3.11.18,1.55.19,3.12.25,4.68.06,1.56.1,3.12.29,4.68.11.86.07,1.73.09,2.6.03,1.65.05,3.3.08,4.95,0,.36.15.67.58.97,1.76.2,3.64.45,5.54.6,1.47.12,2.94.04,4.4.39.57.14,1.21.02,1.82.03,1.22.02,2.43.06,3.65.07,1.22.02,2.43-.02,3.63-.27.68-.14,1.38-.13,2.07-.23.23-.04.44-.23.71-.37-.06-1.92.15-3.82-.21-5.72-.06-.34-.07-.69-.08-1.04-.05-3.04-.11-6.08-.14-9.12-.04-3.99-.06-7.99-.08-11.98,0-.35.02-.7-.02-1.04-.38-2.67-.34-5.37-.47-8.05-.05-1.04-.12-2.07-.27-3.11-.16-1.11-.16-2.25-.2-3.38-.04-.95-.16-1.9-.28-2.84-.28-2.24-.76-4.45-.8-6.72-.01-.95-.3-1.89-.34-2.84-.12-2.43-.65-4.82-.68-7.26,0-.52-.13-1.03-.2-1.55-.07-.52-.18-1.03-.22-1.55-.11-1.3-.15-2.6-.44-3.88-.11-.5-.1-1.04-.14-1.56-.07-1.13-.07-2.25-.36-3.36-.11-.42-.1-.86-.13-1.29-.09-1.21-.13-2.43-.43-3.62-.08-.33-.03-.69-.04-1.04,0-.23.37-.48.56-.37.53.3,1.06.59,1.58.91,3.83,2.4,7.54,4.96,11.17,7.65,3.7,2.74,7.35,5.53,11.01,8.32.41.31.75.7,1.11,1.04.04.41.1.75.09,1.09-.06,5.47-.13,10.94-.21,16.41-.02,1.39-.04,2.78-.08,4.17-.02.52-.1,1.03-.15,1.55-.04.43-.1.86-.11,1.29-.04,1.91-.05,3.82-.09,5.73-.05,2.17-.01,4.34-.35,6.5-.12.77-.08,1.56-.08,2.34-.03,4.52.02,9.03-.08,13.55-.27,11.64-.02,23.27.13,34.91,0,.43-.03.88.03,1.3.35,2.24.22,4.51.26,6.76.07,4.6.09,9.21.15,13.81.03,2.08.02,4.16.3,6.24.15,1.11.08,2.25.13,3.38.08,1.99.08,3.99.38,5.97.16,1.02.14,2.08.17,3.12.05,1.56.07,3.12.35,4.67.07.42.06.86.08,1.15-.1.5-.33.76-.58,1ZM408.17,330.99c-.04-.49-.07-.97-.12-1.61,1.24.35.93.97.12,1.61ZM412.65,347.53s.1-.09.15-.13c.04.05.09.11.13.16-.09,0-.19-.02-.28-.03ZM420.86,334.79c-1.11-.04-2.43.43-3.65-.55v-2.64c.73-.4,1.51-.83,2.37-1.3.42.5.7.89,1.05,1.22.3.28.67.48.96.69.2,1,.34,1.86-.72,2.58ZM426.16,391.57c-.94.08-2.01.55-2.91-.8.23-.54.49-1.15.74-1.73h2.63c.3.91.39,1.72-.46,2.53ZM431.8,349.83h-.74c0-.07,0-.14,0-.21h.74c0,.07,0,.14,0,.21ZM435.58,346.15c-.59-.26-.96-.42-1.33-.59q-.37-1.68.4-3.09h2.92c-.73,1.35-1.36,2.51-1.99,3.68ZM452.84,212.93c-.99.05-1.83.1-2.72.15-.17.26-.35.54-.43.67-2.05.57-3.96,1.1-5.88,1.64-.83.26-1.81.68-2.47-.27-1.06-2.95.76-4.97,2.09-7.35.95-.34,1.88-.7,2.83-1,1.73-.55,3.32-.43,4.54,1.22.19.25.43.47.68.65.81.59,1.63,1.16,2.56,1.82-.46.96-.83,1.72-1.2,2.47Z"/>
      <path class="cls-1" d="M213.68,232c-.07-1.3,0-2.61-.16-3.9-.18-1.39-.19-2.77-.24-4.15-.1-2.69-.03-5.38-.43-8.05-.05-.34-.04-.69-.05-1.04-.05-2.95-.09-5.9-.16-8.85-.12-5.72.1-11.45-.35-17.17-.17-2.16-.15-4.34-.22-6.51-.05-1.73,0-3.47-.31-5.19-.06-.34-.05-.69-.07-1.04-.08-1.73-.15-3.46-.44-5.18-.16-.94-.15-1.9-.22-2.85-.03-.43-.02-.87-.1-1.29-.27-1.54-.32-3.1-.36-4.67-.03-1.04-.11-2.07-.29-3.1-.28-1.62-.3-3.28-.7-4.89-.1-.41-.06-.86-.09-1.3-.03-.43,0-.88-.12-1.29-.35-1.27-.32-2.58-.41-3.88-.03-.34-.11-.68-.19-1.01-.04-.19-.19-.29-.39-.28-.08,0-.18.01-.23.06-.19.17-.4.34-.54.55-1.86,2.82-3.75,5.63-5.42,8.58-.68,1.21-1.41,2.39-2.2,3.53-1.34,1.93-2.52,3.95-3.48,6.09-.35.79-.72,1.58-1.16,2.32-2.13,3.59-3.86,7.38-5.51,11.2-1.62,3.74-3.02,7.57-4.42,11.4-1.1,3.02-2.04,6.08-2.84,9.19-.35,1.34-.66,2.69-.99,4.04-1.1,4.46-2.24,8.91-3.04,13.44-.18,1.03-.26,2.07-.47,3.08-.47,2.29-.9,4.59-.97,6.94-.01.43-.11.86-.17,1.29-.1.77-.21,1.55-.29,2.32-.08.69-.07,1.4-.21,2.07-.19.86-.17,1.72-.22,2.59-.12,2.08.01,4.17-.46,6.22-.07.31.24.75.53.79,1.37.19,2.74.42,4.12.55,2.16.21,4.28.72,6.46.67.17,0,.35.02.52.06,1.02.26,2.06.27,3.1.3,1.56.05,3.12.09,4.69.14.69.02,1.38.1,2.07.1.95,0,1.91-.08,2.86-.1,3.21-.05,6.42-.09,9.63-.15.43,0,.87-.04,1.3-.11.94-.15,1.87-.33,2.86-.51.1-.19.3-.42.3-.64,0-1.56-.05-3.12-.08-4.68-.46-1.88-.34-3.8-.44-5.7Z"/>
    </g>
  </g>
</svg>