<svg width="200" height="200" viewBox="0 0 200 200" xmlns="http://www.w3.org/2000/svg">
  <defs>
    <pattern id="leaf-pattern" patternUnits="userSpaceOnUse" width="100" height="100">
      <path d="M50,0 C70,25 90,25 100,0 C110,25 130,25 150,0 L150,100 C130,75 110,75 100,100 C90,75 70,75 50,100 Z" fill="#8bc34a" fill-opacity="0.05"/>
      <path d="M0,50 C25,70 25,90 0,100 C25,110 25,130 0,150 L100,150 C75,130 75,110 100,100 C75,90 75,70 100,50 Z" fill="#8bc34a" fill-opacity="0.05"/>
    </pattern>
  </defs>
  <rect width="200" height="200" fill="url(#leaf-pattern)" />
</svg>
