<svg width="600" height="600" viewBox="0 0 600 600" xmlns="http://www.w3.org/2000/svg">
  <path d="M600,300 C600,465.7 465.7,600 300,600 C134.3,600 0,465.7 0,300 C0,134.3 134.3,0 300,0 C465.7,0 600,134.3 600,300 Z" fill="#2e7d32" fill-opacity="0.03" />
  <path d="M500,300 C500,415.5 415.5,500 300,500 C184.5,500 100,415.5 100,300 C100,184.5 184.5,100 300,100 C415.5,100 500,184.5 500,300 Z" fill="#f9a825" fill-opacity="0.03" />
  <path d="M400,300 C400,365.3 365.3,400 300,400 C234.7,400 200,365.3 200,300 C200,234.7 234.7,200 300,200 C365.3,200 400,234.7 400,300 Z" fill="#8bc34a" fill-opacity="0.03" />
</svg>
