<svg width="1440" height="200" viewBox="0 0 1440 200" xmlns="http://www.w3.org/2000/svg">
  <path d="M0,96L48,112C96,128,192,160,288,160C384,160,480,128,576,117.3C672,107,768,117,864,133.3C960,149,1056,171,1152,165.3C1248,160,1344,128,1392,112L1440,96L1440,320L1392,320C1344,320,1248,320,1152,320C1056,320,960,320,864,320C768,320,672,320,576,320C480,320,384,320,288,320C192,320,96,320,48,320L0,320Z" fill="#1b5e20" fill-opacity="0.05" />
  <path d="M0,32L48,42.7C96,53,192,75,288,106.7C384,139,480,181,576,181.3C672,181,768,139,864,117.3C960,96,1056,96,1152,106.7C1248,117,1344,139,1392,149.3L1440,160L1440,320L1392,320C1344,320,1248,320,1152,320C1056,320,960,320,864,320C768,320,672,320,576,320C480,320,384,320,288,320C192,320,96,320,48,320L0,320Z" fill="#8bc34a" fill-opacity="0.05" />
</svg>
